P2
64 64
10240
22 24 27 30 35 44 64 133 50 71 42 43 155 139 159 208 269 133 212 326 87 90 350 162 174 287 62 218 156 352 313 140 259 311 210 191 224 283 243 151 195 70 182 267 98 47 234 201 140 51 128 181 163 132 95 48 57 39 33 23 21 20 20 21 
23 24 27 30 36 45 65 135 52 69 45 41 155 133 161 202 262 132 202 325 78 94 342 156 168 281 67 198 154 355 280 158 243 311 217 204 233 280 233 168 194 72 165 274 100 45 237 211 138 59 132 180 166 133 94 45 57 39 33 23 21 20 21 21 
23 24 27 31 36 45 66 138 54 66 48 39 157 126 165 198 253 130 195 324 67 97 334 150 162 281 78 180 154 366 255 184 228 310 222 226 246 283 226 184 194 74 148 286 103 46 242 223 139 72 135 180 169 134 91 44 57 38 32 22 20 20 20 21 
23 25 27 31 37 46 67 142 57 63 50 37 160 120 169 192 247 129 189 328 60 99 331 143 160 282 87 162 155 389 241 226 219 308 227 262 266 294 218 203 192 81 128 303 108 48 249 238 141 84 138 181 173 136 91 41 57 37 32 22 20 20 21 22 
23 25 28 32 38 47 69 146 59 61 53 36 164 114 172 189 239 127 186 337 53 98 333 136 158 292 100 138 155 437 238 296 210 302 234 327 301 314 213 227 191 91 102 329 114 51 260 260 145 101 145 183 178 138 90 41 57 37 33 23 21 20 21 22 
24 27 29 33 39 49 71 152 61 59 56 34 170 108 176 183 232 126 186 349 49 96 339 130 163 312 118 110 154 534 257 428 212 285 237 450 362 356 208 251 193 106 66 365 122 56 275 289 154 121 150 187 183 139 90 41 56 36 33 23 21 21 22 23 
27 29 32 37 43 53 76 159 62 61 58 32 176 104 178 177 224 128 190 372 50 88 356 126 178 357 144 99 158 779 338 757 226 210 240 756 518 437 209 277 202 129 7 419 134 59 296 328 167 139 158 196 188 141 91 41 54 38 36 26 24 24 25 26 
41 43 46 50 56 67 90 177 64 65 56 16 196 120 175 154 196 149 184 410 82 49 415 128 281 543 169 454 979 2014 1167 3064 281 1397 129 2411 1468 680 304 242 269 155 129 500 172 42 343 396 194 160 157 223 184 128 96 48 39 52 52 41 39 38 39 40 
112 110 107 104 100 92 73 25 198 126 214 193 250 90 370 367 398 121 341 290 226 376 656 318 714 1502 3716 3430 6120 5949 6770 4760 3866 5653 570 4377 4292 2502 1870 687 484 787 318 949 166 359 147 242 223 356 354 71 374 325 154 144 204 116 114 121 120 118 116 114 
221 222 224 228 234 244 265 358 227 237 213 199 399 348 238 136 114 452 380 795 602 637 3282 3992 885 4246 5986 2003 5186 1520 5099 3406 4986 3963 4024 434 6437 5302 2480 7545 2460 1374 1718 1965 632 343 609 680 315 443 348 479 298 175 219 224 170 240 246 231 226 223 222 221 
261 261 261 262 264 265 263 224 316 325 361 393 282 323 535 609 732 449 902 1068 3008 1945 4699 5563 3904 2166 4531 3822 4933 3092 3019 4660 3863 2969 3911 5075 3612 3937 8170 4793 4941 3193 3263 3561 1056 950 712 827 649 459 477 229 484 479 376 326 363 284 264 269 267 265 263 262 
244 245 248 252 259 270 294 393 255 269 239 239 450 389 267 177 230 538 1044 5032 4355 3414 5056 2648 4971 4205 2869 2810 4829 3187 1964 2047 4779 3010 3961 4982 5901 4256 5302 3025 420 2652 1297 2474 4985 2719 1640 1197 463 659 447 559 349 231 250 256 201 263 271 255 249 246 244 243 
387 384 383 382 380 376 359 280 547 454 598 538 742 533 984 967 1130 3085 3799 2305 3912 3669 2749 2730 3878 3222 6619 2365 1655 1539 7117 4453 5457 3500 6533 4475 2606 1365 805 1393 3327 2331 7520 3783 2998 3442 6033 3363 1119 1543 1168 414 934 809 505 498 541 444 426 422 413 404 397 391 
368 375 385 397 413 436 476 594 387 488 422 542 626 778 571 1385 4269 6534 5380 5551 4676 1757 3450 4780 2580 4374 5664 5948 1230 6048 6382 5665 8453 2408 5030 526 5164 4994 5188 622 4165 3008 5074 1573 2938 1569 7123 2307 3670 2435 920 791 451 315 383 372 300 369 375 360 357 357 359 363 
338 336 336 336 336 335 325 244 459 415 516 496 617 527 928 4590 4587 1503 1451 6614 6996 2414 5999 3622 4078 2407 6633 6278 2571 3066 3308 3314 6623 2628 3994 4063 5797 2938 6867 2032 2347 5269 3367 3183 2889 1886 4417 3573 4111 5135 2471 524 909 769 519 457 490 399 365 365 358 351 345 341 
353 356 362 371 384 405 443 564 370 451 424 552 849 930 3756 2516 1445 2628 3853 6925 3827 3086 1292 3636 1507 2077 3126 1352 2177 2110 2818 1122 3906 3642 5824 2033 3833 3630 3425 2620 4352 3372 1325 3699 3797 2633 2242 4199 5639 3172 6209 1653 560 416 539 473 365 415 407 380 367 359 355 353 
386 385 387 390 394 399 399 332 546 537 640 791 894 2828 2377 4545 6368 4560 2608 3073 2931 3875 4368 3940 3123 4420 1568 3920 3487 4762 5501 1394 2855 3538 3742 590 4774 3518 7816 3519 3915 2867 3823 3955 4839 5198 4402 2074 5062 2972 6503 5857 2003 1145 643 559 580 476 432 425 412 401 394 388 
377 378 382 389 400 417 450 574 474 515 583 1152 5303 1274 2264 2523 5891 5529 2799 1204 317 2280 4840 4645 6852 3988 3949 3701 2895 3665 4285 2381 3854 3718 6387 3631 5183 3597 2975 2203 3230 5109 1278 5064 2009 2833 6616 1773 1480 5240 2425 5310 2633 1324 553 518 443 437 442 414 399 389 383 379 
375 372 371 372 374 377 377 313 491 463 655 2927 2481 2937 4627 4603 2617 2741 2319 1650 5010 1569 3862 5126 4703 1478 4672 3816 4358 5648 4543 3416 5096 3270 1851 833 5482 771 3238 6859 5802 2406 5246 2633 2629 3282 2711 3068 4545 4920 899 2304 3980 3046 1130 652 555 500 436 422 407 395 386 379 
515 516 521 532 549 576 625 770 641 816 2578 6484 5027 1399 1998 5530 3292 688 3492 4254 1164 6266 2818 3740 1595 3326 4107 1385 6946 2929 3423 2600 1793 2650 4423 5406 4299 1252 6522 5681 1929 3752 2484 5428 3812 5139 6574 1207 5769 2449 4279 3618 3627 828 1952 922 652 664 631 585 558 539 526 519 
428 423 423 426 432 442 449 381 732 792 2916 5009 1727 4166 4885 2227 5850 3077 2284 2296 5745 2338 2226 1937 5323 3054 3377 2022 6960 2972 3243 1230 3474 3451 4591 2921 2845 1228 3344 3129 4301 2419 7479 4317 1463 3887 2147 2535 4303 6547 2283 5772 8110 3607 4118 1091 808 670 564 525 493 468 450 436 
480 481 487 500 522 561 638 817 567 2958 670 1079 2861 3441 3681 5500 3460 3765 4562 1240 3600 2750 6346 6605 3688 2552 2819 4135 3559 2720 3926 1376 4068 3674 4570 1299 4531 3003 5545 2697 4465 4743 3934 2619 5680 6164 4704 3961 3513 4741 2616 4013 3815 2461 4446 1084 632 632 601 552 524 504 491 483 
534 537 544 557 575 601 637 611 967 3629 5211 3928 3623 2603 4903 2617 4789 7969 5820 2965 7142 6508 1723 3246 4555 3627 2283 5937 422 2695 3680 5742 3560 3208 4365 2816 6419 5695 4843 6536 1738 3126 5512 5086 1947 1701 5767 872 5964 3999 1587 3603 3919 2747 4182 9829 1031 698 611 588 566 551 540 535 
593 590 597 614 645 697 787 1074 2459 3551 4372 3375 1737 4355 6214 3878 1606 2776 2869 4674 2411 3967 2881 4415 2984 6409 5608 2264 3399 2937 3999 2393 5182 2702 3022 2546 5191 5006 2502 2114 7795 3679 2303 1777 4126 6003 2567 3739 2280 863 360 7785 5733 4205 3315 7950 4755 1453 1021 827 728 667 629 606 
479 480 487 499 518 547 595 581 1611 4592 3507 3560 2979 4832 3575 4927 3563 2690 3257 7219 4783 6854 5173 4584 3676 1857 5311 833 7853 2758 3451 2726 4499 2381 6731 6459 3331 4633 3960 4583 1717 2935 3544 2770 1546 335 4010 4075 3522 4487 2811 3873 4361 3539 3997 2922 3070 873 640 575 534 508 492 483 
486 497 515 543 586 655 785 1199 4397 5229 3054 1344 2589 591 2098 2176 5363 2123 5594 4454 1100 3665 5320 2616 5702 5123 1676 2588 4426 550 4432 3066 5502 3424 5850 2425 5327 3992 5840 1162 3776 5709 5817 4094 3287 4698 809 5987 1542 3710 5911 2053 1915 1201 4985 5005 791 597 563 519 498 487 481 481 
433 434 440 453 477 529 679 2721 1081 4005 5639 4805 3673 1221 2390 3952 2236 2203 4696 1920 4856 4020 4491 2323 6876 3540 3201 674 2988 2419 3647 433 5509 3310 4967 4339 3473 3579 5290 1407 1930 1787 2734 2552 4621 7252 1973 2081 5148 3466 3931 1924 2838 4265 3873 1784 2750 1660 637 527 484 460 445 437 
629 644 667 701 750 828 1006 3051 5119 2433 2922 7491 4531 2354 2434 3190 6281 3272 3418 6725 3472 5871 3714 2728 3080 2677 3875 3051 4364 4255 1825 4069 2703 5682 4192 4108 5807 1313 6314 2986 5421 3009 240 5005 5570 3270 5657 413 6382 6383 4890 1468 5481 4742 6285 4839 3489 999 666 634 622 616 615 619 
523 536 558 592 642 724 892 919 5782 1909 3592 5072 5459 3249 1854 4362 676 3788 3012 1689 3066 2366 6941 6085 7853 8205 3170 2323 6212 4101 2335 2876 4002 3333 965 5047 4802 2952 5326 2514 2707 2834 4360 2596 4557 1602 857 1872 4055 5223 3138 2141 2308 3824 5227 2962 3695 1634 617 571 542 526 518 517 
547 558 584 631 711 850 1128 3797 5356 5092 7864 1096 8666 2687 4483 2029 5203 1321 2365 3548 4160 6168 2693 7428 6239 1827 1842 2451 7735 1255 2776 1096 3100 2450 4856 3820 2108 987 6158 644 3079 4610 4404 4017 4552 3186 2654 800 8585 4201 4744 4931 6629 4085 7286 2563 4325 2079 976 766 664 605 570 551 
449 454 463 478 503 551 759 2969 1782 1834 2713 2420 4521 3253 1176 4643 1676 3082 5065 3922 3307 1805 3433 2761 1362 3736 4232 4126 4221 3698 1839 2616 2488 3645 6558 518 5209 4383 2125 4871 4212 4524 5106 4363 5647 3669 7214 2114 3468 2091 4155 4262 1134 3028 4189 1427 2824 1569 548 507 481 464 454 449 
676 670 676 696 735 807 951 3057 4592 4364 3211 2263 5688 2109 3739 4242 5308 1574 6125 3702 589 2282 2262 4353 5733 2685 4631 6011 6830 4146 2422 5672 2546 4293 1946 5309 4117 3595 4151 6671 3511 4502 2591 1581 5796 3612 4067 4864 1371 5864 6040 1088 3231 3796 2475 3534 2802 2575 1913 1097 888 787 729 695 
654 639 636 647 675 734 865 3097 3760 5139 7821 3210 5253 3047 2293 3806 6789 873 3499 4656 4485 3234 2739 562 4025 5055 1517 4507 7641 4321 3321 6397 2470 2275 1610 3424 1926 2395 3467 2813 5546 3811 5343 2442 3676 4116 3052 4388 3294 3143 3424 5176 4603 5019 4980 4448 6541 1254 1901 1131 912 798 727 682 
655 676 712 770 864 1038 1644 4284 8980 4947 6323 4930 4840 5027 2458 2912 6317 1021 5063 2328 5242 1368 2125 4475 2634 3308 4580 5313 3455 4371 3755 3114 4445 1344 1827 445 5157 5885 2661 3742 4453 3782 8206 1827 2641 2500 2619 4116 5789 2442 2782 3612 5243 1963 3208 1658 2665 3084 1207 799 711 670 651 647 
611 611 622 648 697 801 1220 1871 4062 2082 7727 3977 3636 4456 6562 1830 3571 3530 4338 4237 3776 2710 3543 3157 3026 5102 1933 870 4658 3367 5253 3133 2766 4306 4184 2800 8187 6575 6516 1947 3782 2397 314 6086 4146 4422 8227 6457 1571 1987 4473 5356 1623 6332 5782 3283 4446 4747 1584 893 750 683 644 622 
612 608 612 624 644 676 717 3055 3835 1312 2925 5221 3804 2404 6100 2051 5153 3955 4737 4153 4947 3847 2829 4461 3610 2256 1855 3364 8131 3975 4014 4104 3439 3366 5527 1176 4069 7595 3270 2855 5573 2903 5212 3417 1760 3202 1055 2588 4364 3021 3700 4590 5216 4921 5822 2434 3784 3010 1039 820 731 678 645 623 
439 453 474 507 555 637 819 2544 5969 3414 5435 5191 2588 3794 4787 4242 4290 3995 3618 7765 8656 4623 1339 492 4932 2414 2290 3751 2330 2762 3400 2102 5156 1990 4733 1723 2449 3205 2720 5091 5628 2094 3677 1185 4987 3906 10240 1206 7962 4178 6409 1971 2139 1040 2770 2806 4036 3595 747 574 495 457 439 434 
547 556 573 601 642 703 796 1833 5437 4321 4252 1962 2609 3307 3425 3097 4532 6101 3547 2564 1501 1762 1609 5022 2068 2454 2557 1330 2720 3686 3566 2821 5257 1368 5391 3965 4262 4248 2698 6736 3079 3460 6416 3389 8326 1057 8956 5157 2994 4303 5206 2475 2088 5307 3044 4147 4546 1304 707 640 597 569 553 546 
535 534 540 556 583 631 741 2747 3974 2163 4644 4848 2699 2923 4625 3910 3248 4951 2907 3482 7916 2487 4034 4202 1642 2942 3304 1975 4507 2437 4740 2555 3521 2009 6745 4694 5726 2897 3338 6587 3017 3192 5034 2561 1657 4712 4164 4035 4050 3598 4619 2442 5537 4077 2558 6653 8476 1777 821 698 630 588 561 544 
538 544 556 578 610 662 757 1020 2005 3353 5724 1223 3003 4073 839 6217 3343 2510 1737 3540 4233 5104 7506 3284 2916 5573 4430 2692 6533 5131 5113 1309 2954 556 4383 2664 6795 2543 5069 952 7900 3498 8803 4479 5251 2237 1349 3326 864 3330 6015 4649 3182 2658 3187 4090 4945 1115 763 655 600 568 549 540 
650 651 660 679 710 761 837 814 3947 2253 4061 4343 1578 1403 4140 2348 2235 3415 5704 5711 3457 2842 3305 2569 2574 5025 2897 2073 1802 971 5919 3173 3977 4219 6019 2410 7425 3280 3635 4122 5855 4773 796 2622 3772 6176 2235 2917 5198 6028 5397 7425 6835 3937 2432 5260 2833 938 824 767 723 692 670 656 
587 595 612 639 679 744 864 1267 1863 2846 5178 3788 1221 2807 4853 4022 3766 2585 1537 3006 3987 4550 3306 2059 4700 4720 4833 4313 4944 2968 6211 3675 4559 6786 5416 4154 7245 5027 3620 510 6706 4149 5293 2701 4492 4591 1370 2751 3164 2297 6516 1539 5077 4317 4027 3594 1053 849 726 662 626 604 591 585 
422 420 423 430 445 471 517 725 881 2861 5359 881 4983 3745 3515 384 1782 2623 2472 3104 5146 948 4221 4459 4226 1408 3915 3223 1084 3135 2987 2324 4088 3833 8289 3062 5624 7043 3783 4346 3383 4780 3917 4446 6247 7855 7564 6008 3880 3322 830 4483 3709 1459 3916 3390 724 490 492 477 460 446 435 427 
493 493 499 513 538 578 652 796 969 2591 7631 2110 4238 1706 5046 3238 1564 1276 7622 4426 2183 3627 3651 3126 3416 4684 5521 3131 6950 4153 141 4334 3756 4316 5012 4346 3192 5448 755 4028 4819 3633 3761 8023 4071 2602 4662 3321 4152 4600 4644 1776 8282 2302 4900 3073 816 790 678 604 561 532 512 499 
470 465 464 467 474 484 492 511 747 921 3095 2874 2033 6192 4631 1364 6206 1231 4946 4624 2662 2759 7127 1422 2256 1224 5289 4209 3652 2837 2611 3045 6794 7004 4375 5108 5116 3065 5517 2001 6432 3283 2696 3834 4442 4551 711 3633 3319 4661 5108 4457 8126 4091 3974 1219 957 675 623 578 541 514 494 480 
563 563 569 579 596 622 662 718 704 873 891 3307 2314 3818 5910 3677 5870 7279 2872 2968 4730 2911 2590 5719 2583 3337 758 3041 5292 2548 3538 3080 5212 5293 2522 3544 2352 2862 6050 3989 328 4524 4691 3772 3499 487 3454 4239 2676 3326 6206 3908 4829 5689 3940 1199 888 812 698 650 616 593 577 567 
333 332 331 332 333 333 325 318 487 515 595 1138 2626 3993 1981 2246 6896 3229 1697 4531 2758 5224 6401 4711 4663 2097 5628 3412 4484 596 7359 3592 3318 5086 7046 2085 4301 1420 2469 2930 4138 3035 5846 3209 1761 3255 1763 1484 2099 4541 3677 886 4768 2135 887 561 562 377 373 366 356 348 341 336 
489 496 507 524 548 582 638 791 601 667 788 969 4843 4940 6274 3501 4760 3440 5956 3745 6362 5354 2275 4325 3888 7009 1505 3133 7051 3240 2341 3423 1968 4133 4412 2298 1676 3157 1746 3842 5416 1910 6322 1580 3713 2851 5168 5182 3773 4245 3533 5749 1997 994 961 620 505 600 554 523 505 494 488 487 
368 366 366 368 372 377 379 410 507 503 600 703 822 3872 5404 3558 2251 3891 1959 3902 6839 2702 2775 6489 3353 4572 3149 1029 7174 2421 3297 4048 4481 4386 1999 1935 3490 1945 3267 1934 8062 4521 2794 1949 4404 3028 978 3413 257 6363 3109 3474 2444 843 440 563 553 436 440 419 402 389 380 373 
359 364 372 383 399 423 463 593 390 389 458 421 916 897 2554 3333 2403 3120 4813 3943 2760 2838 5574 4741 2963 2382 2934 3808 4081 7940 2860 2597 3073 3089 2415 3346 1014 5529 6402 4021 3608 2036 3374 5181 5206 3477 1739 1892 4023 2149 2042 1239 552 372 542 380 307 422 396 375 365 359 357 357 
296 298 300 303 306 307 298 234 456 511 536 670 583 622 2289 7272 4411 1138 6169 3232 3828 3073 1421 3377 3268 5008 2085 3615 3846 2757 5651 728 4717 3099 1827 2570 6231 3492 6984 3974 3433 4562 3672 1497 3530 4816 4091 2918 997 2485 1436 694 580 542 393 396 429 291 299 302 300 298 297 296 
428 428 431 437 447 463 493 608 420 390 452 400 768 908 560 597 4243 3904 1608 4432 2231 5465 6827 2966 5105 627 4710 346 3599 2681 6170 2755 2511 1504 5035 1992 2186 1539 9437 6007 4261 3516 4201 4404 2564 4758 5938 3377 3241 1331 1240 1155 826 467 509 475 414 513 497 469 453 442 435 430 
299 298 297 298 298 297 287 262 416 416 462 521 551 470 762 1151 1895 3221 4139 4287 7496 4039 2518 3721 4266 3864 2908 4753 3062 6607 2355 1922 4183 5765 4823 4006 4506 2806 1133 2513 5118 3172 4968 3930 4941 2569 3087 489 1276 672 838 688 665 539 332 395 423 316 328 323 315 309 305 301 
264 266 269 274 282 294 319 408 224 254 231 221 376 477 252 340 763 753 807 5180 6398 4837 7051 3264 5297 4237 5267 2668 3723 2628 2943 2166 6688 3740 5062 2417 3452 973 3963 3206 2639 2712 1699 3174 3570 1188 743 774 297 453 517 617 406 173 313 247 196 306 294 277 271 267 264 264 
218 216 214 213 210 205 189 141 307 311 333 378 384 293 521 675 803 309 782 414 715 4928 2162 2179 5516 3167 4467 3611 3314 1696 5730 1529 5765 3819 3513 5410 3931 3942 5473 1326 3784 4928 2879 4364 1172 674 496 267 507 353 453 356 441 422 274 296 331 217 228 231 228 225 222 220 
193 195 198 203 210 220 244 321 148 202 155 151 281 375 119 164 414 459 379 761 634 678 1897 2919 7420 6020 3828 3923 2751 3106 3189 2651 4862 1056 6183 5166 1540 4620 6170 4456 3751 1538 1063 839 662 388 582 487 285 272 269 410 214 98 277 191 140 229 212 200 195 193 192 192 
113 112 110 108 106 100 86 20 175 219 191 242 183 93 346 461 588 86 551 347 91 189 663 351 794 3567 1715 3738 4791 3828 7006 4303 2563 2700 5969 2852 3716 5200 3021 3490 767 350 481 464 423 360 450 126 367 175 184 114 230 288 224 192 217 109 105 114 115 115 114 113 
77 79 81 85 90 99 119 184 22 133 39 84 150 207 129 231 385 232 355 493 253 122 532 374 222 649 412 353 238 2417 6661 1012 1849 1250 1712 294 1599 1300 656 532 378 212 397 323 247 150 369 264 220 79 120 247 121 92 176 96 69 103 85 77 75 74 75 76 
31 33 35 39 44 52 72 141 30 97 28 70 161 180 154 246 355 156 315 390 182 49 493 247 239 474 131 428 200 713 1578 296 708 401 245 219 504 555 452 186 231 155 349 321 144 87 286 197 180 15 130 218 156 121 128 58 62 54 41 32 29 29 29 30 
26 28 30 33 38 47 66 135 37 89 32 64 162 173 154 240 330 147 289 365 160 56 452 219 238 398 85 373 200 503 919 183 499 331 206 210 327 404 370 98 206 122 303 300 117 73 264 189 168 15 129 209 159 125 117 55 60 48 37 27 25 24 24 25 
24 26 28 32 37 45 64 133 40 85 33 58 160 167 155 232 313 144 269 352 143 64 422 202 227 353 66 326 187 427 653 145 402 318 199 193 262 347 321 91 198 101 266 285 105 64 250 186 160 19 128 201 159 128 111 53 60 45 36 26 23 23 23 23 
24 25 27 31 36 44 64 131 43 81 35 54 158 160 155 226 298 140 252 342 127 70 397 189 211 327 57 291 175 390 510 129 343 313 200 187 235 316 292 105 197 87 238 274 99 57 241 186 153 25 127 196 161 130 106 52 59 43 35 25 22 22 22 22 
23 25 27 30 35 44 63 130 45 77 36 49 156 153 157 218 287 138 237 335 112 78 378 179 198 307 55 263 167 368 420 126 307 311 201 182 223 301 269 121 195 78 216 268 96 52 236 188 148 32 126 189 161 131 102 50 59 41 34 24 22 21 21 22 
23 24 27 30 35 44 63 131 47 75 40 46 154 147 157 213 278 135 224 331 100 84 363 170 185 295 55 238 159 356 359 130 279 310 207 185 223 288 254 138 195 73 198 265 97 48 234 194 143 40 128 185 162 132 99 48 58 41 33 23 21 21 21 21 
