P2
64 64
10240
6 7 8 9 11 14 25 66 107 16 13 55 151 96 139 88 254 101 174 169 52 169 171 197 189 142 183 78 170 115 372 378 298 120 608 240 320 287 143 259 191 209 234 115 246 171 276 112 39 120 256 126 77 93 23 54 158 11 18 4 3 4 5 6 
7 8 8 9 11 15 25 67 110 24 25 61 161 103 148 91 248 103 187 174 50 175 161 207 208 155 205 57 163 110 394 402 288 110 578 228 330 307 143 264 171 202 252 133 247 179 278 111 27 125 261 125 80 103 29 63 157 10 18 6 5 5 6 7 
9 9 10 11 12 16 27 68 108 33 23 61 169 108 147 101 235 95 201 173 47 190 154 215 227 174 218 43 150 90 413 420 288 125 538 210 341 326 150 272 159 207 273 153 248 194 287 102 23 127 258 139 73 106 27 70 157 18 18 6 6 7 8 8 
9 9 10 10 12 14 24 66 111 38 29 53 174 106 151 98 219 92 217 178 71 192 166 244 248 196 236 34 163 87 458 457 278 135 526 201 370 362 150 271 142 203 294 156 247 200 299 95 17 123 268 141 68 97 24 74 157 26 18 8 7 8 8 9 
12 12 12 13 14 17 26 76 110 35 31 61 181 120 166 113 221 92 234 184 86 195 165 275 278 209 237 32 173 80 504 525 277 139 501 204 403 414 137 262 136 226 330 188 231 211 315 84 15 121 273 137 73 99 18 68 158 30 19 11 11 11 11 12 
14 14 14 15 15 18 26 76 115 45 40 63 195 129 166 104 214 90 257 200 107 202 170 323 310 255 269 34 226 69 584 678 274 160 510 231 485 501 133 263 117 230 385 226 224 226 342 90 8 124 281 147 73 101 17 65 158 30 22 14 14 14 14 14 
21 21 21 21 22 23 31 76 115 60 61 66 213 144 175 120 218 104 304 221 107 223 161 388 377 323 314 77 354 80 768 1022 250 189 535 327 599 663 134 283 128 245 440 286 242 245 349 92 11 130 288 158 88 112 21 72 157 29 29 22 22 22 21 21 
39 38 38 37 37 36 39 70 114 96 81 83 235 163 169 134 233 132 383 240 127 257 199 535 500 481 402 312 1213 115 1978 3283 366 1001 928 1410 1096 1214 205 370 154 269 545 387 286 287 392 89 43 150 311 198 107 116 15 97 147 44 51 44 42 41 40 39 
108 108 108 109 111 114 125 169 50 147 132 68 327 242 143 242 144 153 464 423 235 202 124 975 810 1107 623 2791 4593 4116 3259 4551 2046 4126 1914 2825 2241 2395 331 381 695 711 602 684 466 519 248 60 164 66 203 256 137 234 118 79 255 136 96 106 108 108 108 108 
137 137 137 138 138 137 129 84 292 165 172 244 117 134 436 135 409 304 457 58 894 1259 769 3657 4849 2081 4438 3069 2310 1980 4625 1144 2002 1974 2700 363 4932 3360 3019 1878 3059 2664 2867 959 427 239 735 332 202 343 508 228 224 66 158 230 56 120 168 149 143 140 139 138 
189 191 193 196 201 208 223 277 150 225 227 169 465 390 245 414 258 378 982 1130 1776 2561 2766 3284 5336 2685 5230 3315 4610 3770 1899 4591 3246 2904 2358 2585 3068 824 2578 2569 3576 2287 2599 3102 3607 1164 507 301 324 150 92 254 176 339 227 133 370 225 170 185 187 187 188 188 
212 212 213 215 217 218 213 175 369 299 306 364 318 338 555 434 690 703 1734 590 4869 2515 2970 5261 2714 2994 1034 2118 6409 2325 2598 3542 966 6454 6860 2577 5124 2313 3320 1643 1970 1932 6599 3704 3747 505 2145 912 454 589 723 388 392 187 266 342 75 213 254 232 222 217 214 212 
267 267 269 272 277 284 300 342 285 269 284 266 524 458 465 485 524 1895 1206 2438 3259 935 2818 1983 3439 2984 3271 1133 2166 5303 3329 3948 4685 4184 3276 2424 4050 3669 6712 3319 4251 2630 3827 3654 3308 4484 4459 2267 776 458 307 352 304 457 371 248 479 325 267 275 273 270 268 267 
249 248 248 250 252 255 253 233 377 374 385 422 496 496 878 946 5177 2291 4524 2953 3313 2794 5266 2780 3234 2044 4293 1714 2714 3779 1649 2824 2417 3192 3303 4453 2688 2887 3132 1487 3239 2040 2366 4016 3497 3858 4534 4557 2327 806 844 539 515 306 335 410 157 260 303 279 268 260 255 251 
420 422 427 435 446 461 485 540 560 468 536 624 796 917 2175 3802 7289 4783 5308 1211 3384 3314 10240 2970 2980 1618 4738 4367 3142 3536 2696 2669 6186 1228 4591 2192 3997 5471 4786 4127 3188 5195 4039 4313 3034 3555 3588 3881 4308 4037 693 616 499 665 566 436 649 504 434 435 430 425 422 420 
225 229 234 240 247 254 255 221 479 371 382 547 453 773 3043 3626 3517 4508 2044 2198 766 2055 5153 4597 2426 2002 930 1936 905 4991 4924 5220 3058 3210 2455 2373 2306 2719 2014 2990 6109 1989 3833 900 3284 2632 5134 3355 3501 1907 5374 1399 601 433 309 367 125 206 261 236 227 223 222 223 
381 385 391 400 414 433 464 537 501 472 569 689 1098 4026 5678 3034 4773 4133 5223 2752 4277 1928 2014 3119 2709 3338 3407 3911 3803 4346 5370 2744 3685 3073 5659 3052 6414 2592 2915 5110 1730 3233 2382 2592 4203 2649 2736 2224 3126 1811 3157 2528 807 858 544 397 670 479 394 397 391 386 382 380 
357 356 357 361 367 376 382 368 539 636 641 952 4245 1454 5317 3327 1756 878 1548 3546 3158 1048 1960 3781 2739 2825 5032 2473 1592 4038 3593 2960 4671 4800 2668 3869 7760 1508 3441 629 4452 2025 4916 2471 3278 4266 2663 3153 1301 5248 2532 3388 5542 940 775 709 345 431 460 418 395 379 369 361 
404 404 408 416 427 446 480 562 348 732 904 3451 3820 1596 1027 1171 2229 1803 2638 1678 2987 2018 3835 2510 4786 4540 2844 3911 5419 1629 1786 4055 7578 2293 4001 3572 4767 470 3220 3566 1914 1592 4063 3828 4887 560 4664 5293 3233 4008 2322 3504 3938 946 509 385 757 535 432 434 425 416 410 405 
372 372 376 383 392 404 414 387 659 815 1364 3253 2616 1681 3563 4279 4427 2552 3167 3918 4140 2114 3042 2899 2221 1321 2143 4633 5876 165 3984 2283 3841 1387 3109 2907 431 3888 7657 468 5537 1601 2686 4327 4660 1744 3210 3357 2394 3299 3862 1503 4357 3699 2457 857 352 432 476 429 405 390 380 374 
430 428 431 439 453 475 511 611 749 663 1940 2286 3988 2459 3035 1623 5601 3256 3205 2390 6120 2100 2248 4933 3993 2341 3844 3684 3416 2972 2767 3401 3175 2842 6458 4942 2192 3340 8023 4087 3526 2770 4782 1221 3943 3337 5276 2588 4917 2659 1476 2661 5446 5378 4351 1120 904 692 576 528 493 467 449 437 
323 323 325 332 343 361 383 384 984 1138 4241 5527 5007 2929 4406 3142 3093 601 2385 1414 3767 2846 7175 4602 2290 869 3136 4384 2260 5509 5648 4742 3111 2087 2457 1835 3422 6291 2243 3650 5777 2008 4776 2945 6028 3114 2139 2981 2518 1217 2278 4641 1297 2727 2900 1073 405 368 407 374 356 342 333 327 
465 470 480 497 523 563 630 790 1404 4571 3886 3306 3686 1933 4140 1997 5146 3503 5245 4140 1886 551 3516 2944 1560 4249 5777 4522 4549 646 5127 3698 3719 4086 2554 1377 1058 3958 2086 3749 621 4708 6021 4050 5142 3531 2612 3760 1382 3430 3159 2473 3830 3241 3538 2409 938 664 531 512 493 479 470 465 
430 426 426 432 444 464 493 532 1043 3755 3613 4179 2406 4751 3582 2332 3029 2830 3518 996 5570 4753 2940 3388 3256 3213 4247 2596 3761 3117 3453 2080 877 1779 2137 1558 2467 2943 3611 1823 2820 2562 4602 3759 1837 3214 904 2757 2400 2280 5018 5535 3338 4321 3383 1585 681 637 670 570 516 480 456 440 
492 501 517 542 582 645 755 1049 4404 3005 2986 4955 4582 1951 6369 2041 6700 3553 4339 656 2314 3656 4742 1953 2742 1421 4623 3412 2958 2884 3479 4454 1036 4090 2782 3310 4774 3215 2950 3880 3645 1674 2371 3880 2241 2823 4936 1978 3752 3339 2290 1492 2522 5126 3106 3490 2225 840 593 553 525 507 495 491 
351 351 355 366 384 415 474 547 1844 3341 2006 1660 2930 4919 2594 1894 2269 2854 3390 1652 4951 3070 3397 2068 1057 1096 3711 1608 4203 3010 2582 297 3444 5908 1395 2863 991 1483 5473 3579 2787 842 1264 1275 5571 859 4916 5770 5968 6620 1764 3552 2924 3445 3998 4240 1132 689 528 456 414 386 368 357 
479 485 499 525 566 638 801 1556 3885 845 1823 3180 6774 5310 4405 3074 4179 2217 2228 3806 3983 5924 2816 2146 2744 2398 2768 5147 3679 5102 6247 3308 5982 1305 1615 3405 3704 2496 4845 2336 1758 3607 5464 1812 2853 4311 1334 2768 2347 3935 5973 1197 5886 3002 3307 2608 5886 1178 673 588 539 509 490 480 
451 460 480 514 574 688 966 5737 3866 3199 4765 3235 3097 3533 3109 6783 3474 2226 5130 4130 5304 1836 3061 3474 2063 2277 2970 3109 2168 2649 3350 4273 1765 4039 2160 3297 3802 644 4240 2994 3843 584 1713 4817 1262 2936 3607 5248 4760 3544 3734 4571 3713 3999 1991 1776 2923 1292 587 523 488 466 454 449 
387 372 364 366 379 411 485 2122 1634 4377 4915 4304 6707 1416 4195 229 5756 3149 2412 4272 5430 2172 2028 1959 1061 3080 2326 2146 3397 3889 1078 1178 5288 3210 4190 887 2715 5760 7869 3569 5061 2343 2267 3425 2513 3154 3489 471 4068 5451 4047 2937 4955 2516 3652 3774 3855 1728 952 693 571 496 446 411 
452 459 475 504 550 630 792 2707 5481 1959 6764 1437 5151 2648 2906 3006 5509 3789 7718 3337 1499 1321 3022 4293 2702 3139 2658 5722 5365 3861 792 3669 4609 2699 5254 1651 5377 4674 3313 4638 3143 2124 3042 2497 2247 2691 1057 3600 5932 2998 4050 5344 5582 2411 4940 4105 2356 3459 682 563 512 482 463 454 
556 566 586 619 675 789 1307 5164 1847 3258 6117 2430 2558 2592 5582 2192 4348 2658 354 2857 3795 2802 3355 5419 4771 3620 4849 1634 4231 6386 5017 6351 7992 1865 4096 3764 6073 1835 2480 1855 5473 1719 5874 2751 4460 4717 3768 2086 6189 1370 6876 3859 2617 3439 3573 2450 5704 4412 788 689 623 585 564 555 
509 514 529 555 601 692 1069 2045 2843 3663 4543 5780 734 3629 4546 707 3472 491 3318 2028 4972 4593 726 2320 5491 3573 4320 4370 2501 2509 4085 4335 7911 1547 4061 5365 8076 2850 2553 1697 4362 3470 4911 1404 5749 3212 4062 3595 2163 1926 3747 3171 3777 2892 2608 3889 4341 1111 908 662 584 544 522 511 
435 442 455 478 514 574 707 2052 4087 3361 1698 3912 3342 4193 5403 2439 4057 1127 790 1187 2084 2079 2478 2391 3127 3381 3398 199 4547 4760 2335 6345 2711 1026 3487 4782 3522 2022 2451 3557 2914 1620 5309 2224 1161 4449 5426 4650 3599 3782 3830 481 4367 1566 477 3949 5381 4171 646 542 490 460 443 436 
488 492 504 526 562 626 817 3296 3018 2935 4489 2313 4834 2754 6072 2697 4838 5531 2905 4295 1139 1597 1368 2656 3744 2532 1342 3044 4447 1517 2121 2563 5470 4939 4873 3411 2370 3574 3044 1776 2671 3109 6866 2838 5244 5336 6587 2100 2706 2308 1503 3869 1511 4361 7438 3277 3937 1128 741 620 560 525 503 492 
502 514 534 566 618 718 1196 5430 2541 2154 4738 3372 5096 4364 2669 3193 4078 3611 3600 2891 2683 5328 1926 2847 3998 2384 3173 2280 2871 2975 4737 2779 5032 3116 3545 1197 5685 3331 1104 3649 2225 202 2742 3741 6626 2928 3134 2428 1020 4613 5505 1156 3364 4598 3942 1502 5124 3504 620 558 524 505 497 496 
475 485 501 526 561 614 728 1927 2663 4385 3100 5076 4601 881 3467 3563 3596 3350 3666 1204 3686 4342 1963 3616 4053 2851 2954 2235 4609 4715 2180 3407 2463 1985 3342 1260 5451 4915 3052 336 6453 4000 2626 460 3767 1931 4692 2201 4069 2700 4566 1148 1118 2788 4082 1983 4543 4135 738 569 515 488 476 472 
460 469 483 505 537 588 697 1561 3803 2390 4670 3502 3607 2550 3894 1265 3169 3162 1712 2440 3478 1806 6400 4433 2516 2146 4351 4436 4102 844 2452 1546 4802 3552 4227 3132 2481 3300 6572 2882 2954 2655 3437 3135 4746 3039 773 1078 1386 3269 3725 3032 1031 1225 3461 1237 1972 2956 503 494 476 464 458 457 
316 330 353 388 446 555 813 2909 4251 3992 2420 2162 3773 805 3869 2351 4169 1685 1215 2242 2835 3237 5284 1342 2111 4360 3204 4801 2866 960 3764 4695 2964 2632 1418 4890 4287 3701 1239 2760 5285 3477 1201 4077 7121 1577 4712 1624 4097 2505 6730 2232 2172 1230 2265 2757 757 1090 412 339 316 307 305 308 
496 501 513 535 571 629 744 858 3665 4982 5421 5640 1496 1390 2792 4453 4386 2426 1452 4171 6925 3270 4544 3746 5417 4525 2700 909 7509 3695 2324 4710 1140 3397 4129 1901 1133 2592 2870 4850 622 2889 4475 1754 3425 3268 4561 4685 2705 1517 5940 5610 2569 3537 6255 2805 3525 1700 740 623 565 530 510 499 
539 527 523 527 541 568 625 868 2513 2668 4040 4981 4147 1599 2192 2722 3275 2573 1735 1035 5907 5179 1224 7185 3904 3175 2396 4253 2211 4454 2565 5208 1913 1491 3067 2906 3691 4414 3263 5814 4136 1363 2855 3227 1428 1954 3807 4087 1692 5355 3026 5017 3528 1961 7320 2231 4603 1088 914 786 697 635 591 560 
472 477 489 509 542 595 697 895 4061 2443 3887 7101 6241 473 2827 670 1530 4415 3969 4353 4205 5433 3310 4639 3087 3218 6967 2816 5685 2811 1516 4301 3382 608 6126 3099 5082 4909 2327 268 6020 2703 7242 2079 2315 3372 3081 1391 3567 5450 710 1872 6064 3189 2177 1428 1328 802 624 558 520 496 481 473 
482 489 503 528 566 629 734 1094 3825 3202 1629 2931 2850 4489 3592 3172 2288 3101 4812 2591 4003 3009 2649 2724 2220 3168 2903 2167 6688 2665 1616 1794 4265 2884 2320 458 2895 2739 3195 4293 1859 2574 6329 2982 5826 4327 1905 2838 3984 4237 2044 2572 3106 2664 2222 3345 2200 834 657 576 532 506 490 483 
377 379 386 398 417 446 494 548 541 2246 2808 2069 3565 5249 3276 335 783 2524 4263 3598 1423 2340 4043 3466 2120 5671 6351 1194 3540 3616 3408 647 3956 2346 3225 1390 2786 3204 2695 2714 1747 6564 356 4739 755 1536 4575 3464 4909 2295 1582 607 3281 2365 6592 1202 750 543 482 444 417 399 387 380 
419 416 416 420 428 440 449 511 777 1308 3597 4930 5876 1100 4268 1450 2988 2737 2593 2291 6485 2353 2833 763 4235 3791 3771 2444 3522 4940 3709 2054 5744 1502 3445 701 3819 3804 4607 2979 2609 2302 2414 3606 4878 1970 3812 4686 4309 4034 4443 4146 1139 2606 5386 1054 545 667 574 513 479 455 438 427 
392 401 415 434 462 503 577 660 630 1203 5847 3804 1723 1153 2162 4235 384 4699 2117 4924 1588 3408 4495 3439 3438 803 4327 2189 6182 2136 3138 1723 3821 2647 5220 2001 4122 4361 1235 1617 6156 2872 4083 3788 4229 2875 2471 4007 4308 400 5794 1334 2644 1698 2667 639 653 439 423 410 398 391 387 388 
478 481 488 498 513 533 560 584 784 729 844 4349 4174 1973 5528 5094 1318 5556 1556 4414 5342 2211 6475 990 5716 3331 4628 1419 3885 3806 3584 4108 6564 4666 5092 2345 4402 2910 5017 2931 5327 4283 6537 1603 5746 3910 2684 3304 6081 2442 3414 4142 6316 4488 993 720 678 594 548 519 501 489 482 478 
377 379 383 390 401 417 450 467 336 567 703 3060 2890 2295 3905 4471 4589 570 5714 2063 2061 3832 4450 5468 644 2908 4136 1710 5413 1987 4675 2317 3234 3466 2294 2134 3365 3742 6293 5257 4684 1754 5312 2879 7256 5131 3356 3241 3460 2339 2956 6088 4504 2059 781 541 717 404 402 401 392 385 380 377 
308 309 312 317 325 337 349 371 554 432 531 790 3299 3403 3820 712 2050 3182 3672 2602 4228 4745 3235 2897 3294 3820 6344 1545 3120 2210 1976 4582 2758 5142 2123 5344 3503 3602 3167 3068 3831 3244 1614 1752 4801 1048 4701 3884 2396 1830 1489 1710 1182 712 569 506 519 415 376 350 334 323 315 310 
343 346 352 360 371 387 413 442 324 541 582 693 1138 3260 5481 2062 3361 2347 1711 2234 4265 1599 2563 3460 2973 1775 4588 2936 5387 3000 1424 4451 3471 2121 3089 4184 7556 4494 3484 2798 4515 1500 4632 4641 5343 3298 1748 1896 6201 3867 2498 1278 1010 710 490 393 530 359 353 353 349 345 342 342 
316 317 319 323 329 337 345 340 524 381 449 509 587 975 2543 4663 4968 2546 3075 3389 3138 2779 3162 1844 5328 3205 4252 3706 4586 959 5591 1372 5883 3524 2277 2604 3769 1907 3842 3610 2705 3046 7414 3143 3177 2825 5057 2225 4880 1230 4661 2309 896 386 443 445 358 409 379 351 337 327 321 318 
307 310 314 321 330 343 371 401 250 429 436 408 701 564 1333 3442 5068 1186 3675 2437 5662 3982 1271 3350 3541 2641 2225 4270 3261 3577 4855 4876 6072 4802 3786 1657 2344 4375 3245 2627 4378 4211 3748 5865 1797 1007 2264 2348 1637 2606 419 492 459 528 416 337 529 298 297 307 307 306 305 305 
293 293 295 298 302 309 314 316 479 345 405 449 399 520 862 1271 3794 3843 4577 4036 6536 2705 6190 3009 4387 7010 1140 3291 5510 1050 620 4527 4610 2232 5670 4004 6221 3974 1185 3707 2227 1353 4296 3932 4100 2233 1689 3719 4710 1257 791 489 408 373 394 411 395 368 346 324 313 304 299 295 
322 324 327 332 339 351 378 372 309 409 420 364 574 432 630 653 265 2426 5485 5478 4928 962 6340 2285 3867 2693 613 3500 2339 3252 1396 2185 2969 231 4602 3799 4478 698 4391 2203 1688 4590 2233 3589 2662 2150 546 3952 732 353 180 381 358 553 452 381 583 322 324 330 328 325 323 322 
232 232 232 233 235 235 225 239 391 243 290 357 214 412 411 459 1053 1147 2618 3518 7087 4406 5115 3431 3308 1517 3289 2496 5220 5189 1063 1567 2127 3377 5009 2333 2736 781 1956 2628 3433 4446 2723 1451 3095 3233 1115 1006 340 601 662 377 381 171 246 305 159 282 273 253 244 239 235 233 
178 180 182 185 189 196 214 233 98 243 214 185 358 234 250 288 273 340 540 684 773 3162 4823 1208 2330 3176 3423 1216 4222 1832 2854 3128 2179 4938 4719 4462 2750 3463 2823 1766 5116 2801 5327 2168 3337 1349 352 724 402 240 143 264 284 342 250 186 371 169 166 177 178 178 178 178 
143 142 141 140 140 138 130 105 277 132 176 204 47 192 245 183 611 421 453 41 421 709 2058 954 1445 2306 3090 2094 1402 2579 4930 3387 1722 5349 6578 2064 2174 3489 4132 4112 5344 3904 2334 749 876 405 531 575 254 341 474 221 203 121 160 218 184 179 180 163 155 151 148 145 
136 138 140 143 148 155 174 184 93 177 160 123 287 167 208 232 197 128 185 447 276 124 185 478 691 876 1720 1869 2493 3129 5431 4257 5370 4698 2681 2034 2982 1595 1211 2793 1831 946 331 392 542 440 64 365 236 108 144 174 199 268 186 117 313 120 116 129 132 133 134 135 
43 43 43 43 43 43 45 11 164 29 67 83 83 61 145 32 402 192 218 122 147 289 312 105 98 300 286 369 1478 1858 1681 3323 3035 408 3376 989 1796 299 378 691 730 265 235 204 489 139 290 264 79 177 315 127 108 73 54 101 166 55 65 52 48 46 45 44 
4 4 4 5 7 11 26 37 122 23 17 41 130 70 112 43 351 159 198 173 68 188 244 157 86 193 181 183 607 535 430 878 829 128 1434 466 607 228 239 415 516 233 177 180 408 154 243 182 49 144 284 116 119 94 34 53 169 17 28 14 9 7 5 4 
2 4 5 7 9 14 26 52 112 19 17 41 132 77 112 56 331 141 180 175 55 166 214 160 117 156 176 141 392 322 355 602 538 128 1072 362 439 227 197 349 405 239 180 146 346 152 247 169 50 123 264 122 108 90 27 42 167 10 23 8 4 1 1 2 
3 4 6 7 10 14 27 54 114 14 15 45 139 81 117 56 319 134 179 182 61 157 199 165 136 142 190 102 304 246 352 493 426 110 912 316 375 238 185 315 329 214 191 136 320 148 247 161 41 118 266 124 103 96 36 51 164 2 22 6 2 0 1 2 
5 6 7 9 11 16 29 53 107 18 7 45 143 82 124 72 306 123 182 174 38 169 178 158 160 132 188 80 245 187 347 421 365 114 784 278 332 241 181 300 293 216 202 136 307 160 245 143 42 125 253 138 99 104 36 56 163 7 20 5 1 1 3 4 
5 6 7 9 11 15 27 51 109 22 9 40 146 79 124 72 276 113 177 172 45 173 180 173 164 139 187 77 217 159 357 381 333 123 716 257 317 254 177 286 248 195 201 109 288 162 253 129 43 122 258 137 85 95 35 62 161 10 19 4 1 2 3 4 
6 6 7 9 11 14 26 60 105 19 8 50 144 87 141 89 268 110 177 167 42 171 174 181 184 129 178 73 196 143 370 367 303 111 653 244 311 272 158 266 223 207 219 112 265 167 261 113 42 123 259 123 87 94 30 55 160 10 18 4 2 3 4 5 
