P2
64 64
10240
9 10 10 11 12 14 21 42 109 47 127 153 177 170 150 175 147 207 160 147 182 263 313 435 319 187 205 438 377 221 98 268 81 234 376 201 89 175 72 286 290 365 157 102 135 154 89 74 233 332 115 72 99 207 103 242 47 61 18 6 6 8 8 9 
9 10 11 11 13 15 23 40 105 49 134 149 178 166 158 181 151 207 176 153 186 264 313 434 321 207 206 434 394 224 87 252 78 232 395 203 89 180 70 268 276 357 165 103 131 158 88 75 235 324 117 70 106 201 110 243 50 59 17 5 6 7 8 9 
10 10 11 12 13 16 24 37 102 50 140 142 181 165 164 185 156 206 191 163 191 266 316 433 324 235 207 435 417 229 73 238 76 237 424 205 94 185 74 255 268 354 173 103 129 164 90 78 239 317 120 65 113 195 116 245 52 59 17 4 6 7 8 9 
10 11 11 12 14 17 25 35 100 52 147 137 186 165 171 193 162 212 207 175 197 267 322 431 325 272 209 438 447 240 65 232 80 257 465 205 99 190 85 244 261 357 182 103 127 170 94 82 243 309 124 62 122 190 123 251 55 58 16 3 6 8 9 10 
11 12 12 13 15 18 26 34 98 54 155 130 194 164 178 199 168 218 224 190 204 271 335 431 328 324 214 452 494 258 55 228 90 302 526 199 118 197 100 239 261 366 193 101 128 180 102 90 250 304 127 56 132 184 130 255 58 58 16 3 6 8 9 10 
12 13 13 14 16 19 28 33 97 55 162 124 205 167 182 206 177 229 242 211 215 277 352 428 327 407 225 481 570 295 54 235 125 396 622 186 170 209 122 241 265 386 204 99 131 191 114 99 257 297 133 52 142 179 137 263 60 58 15 3 7 9 11 11 
14 15 16 17 18 21 30 35 97 58 171 118 219 169 188 213 188 242 263 240 228 286 381 423 326 552 268 570 745 391 56 281 232 655 826 158 344 233 147 258 280 427 222 100 140 207 133 111 266 294 139 45 154 175 147 271 62 58 13 5 9 12 13 14 
26 27 28 30 32 36 46 39 100 75 166 112 220 183 207 237 214 246 305 274 274 304 406 427 329 871 479 1114 1629 1059 142 758 793 2542 1953 346 1381 395 144 386 327 513 275 125 149 208 184 149 257 300 166 29 149 176 174 294 49 49 7 16 21 23 24 25 
165 165 165 165 165 163 155 185 198 145 381 255 464 261 88 53 226 514 170 622 156 494 1005 508 951 4715 3196 5933 3758 1472 4971 3765 5583 5541 3677 2458 7948 2762 1629 1985 654 884 102 331 415 522 177 142 528 211 87 252 378 169 28 154 253 218 191 177 171 169 167 166 
280 280 282 284 288 293 302 318 381 307 396 218 444 227 430 493 368 675 549 967 738 1046 1978 1500 8437 5254 4382 3396 3820 4174 5458 4711 2429 1221 6404 2301 5108 5837 3764 4705 3673 4071 2360 933 762 576 570 501 404 664 441 328 370 474 419 574 260 316 271 281 282 281 280 280 
255 254 253 253 254 254 254 247 206 292 364 410 461 502 346 354 531 520 558 1360 2802 4428 3703 3056 2445 1723 3309 2139 6187 2623 4983 2105 5933 5655 2819 4054 8624 2759 3582 5828 5296 3460 5500 3042 1600 1045 1180 745 642 270 477 419 430 228 333 227 360 281 305 283 273 266 261 257 
315 318 321 326 333 343 360 363 404 409 339 343 354 475 628 740 773 863 1292 4717 5226 2160 4860 3600 5976 5025 3780 4949 5817 5191 4524 5278 4361 3015 4551 5891 6501 995 6042 4630 3673 861 4888 2578 8067 6017 2554 950 586 829 623 427 390 526 532 669 270 330 306 316 316 315 314 314 
495 493 494 498 504 512 522 516 485 619 575 779 700 1039 920 1145 1945 1775 6009 3146 3990 5247 4831 3104 7472 2796 4218 2920 4839 919 6867 3229 5921 5913 2432 2521 4871 3437 10240 3911 2982 5037 4229 5376 7184 4732 6880 4802 1626 1011 1103 854 748 655 710 568 645 553 573 544 526 513 504 498 
378 382 388 397 409 425 451 450 468 557 340 558 323 930 1003 1713 2305 2696 1384 4028 5265 3560 4994 5057 5210 2423 7130 7369 4480 6945 2689 3313 4784 2165 2476 2073 5164 4463 8207 2359 3300 901 4952 1731 5110 2801 7547 5216 1771 1075 859 503 373 586 654 772 311 370 366 374 374 373 373 375 
273 274 276 280 285 291 294 308 314 364 559 570 766 983 1129 5024 6472 322 4890 4018 1537 3665 5272 4250 2501 2936 6423 4443 2078 4251 2772 4731 2871 3381 2441 3006 4045 4177 4800 3068 2707 3528 4757 4586 5201 1851 4447 3707 8078 2568 472 605 780 321 293 162 432 332 329 303 290 281 276 273 
400 400 401 404 409 418 433 454 493 487 511 464 459 2396 3499 3776 4724 1763 2868 1413 3869 4399 5148 3670 4662 4866 3664 4832 3098 5716 7025 2334 4646 2216 4875 1078 6504 8240 5134 1341 5490 4855 5269 4436 3029 5119 5145 5600 3272 3265 3950 2727 1353 716 666 807 456 493 434 430 421 414 407 403 
417 416 417 420 425 432 437 447 460 529 714 790 1110 2520 5522 3063 2774 5702 2444 4113 2654 1813 5352 2833 6956 4865 3011 2114 4725 4380 9089 4132 3924 722 5503 5177 1765 5590 6165 3480 3252 5516 5063 3296 6359 3104 4507 1899 3021 6171 4928 3584 2365 670 458 245 651 521 505 470 450 436 427 420 
438 443 451 463 479 503 539 569 612 712 710 923 2653 5007 3192 2930 6105 6280 7040 4482 3826 2986 7452 4524 5822 3645 3198 1971 2255 5523 2259 4931 5231 4456 3503 5253 2289 5417 5225 1876 4174 601 4285 2242 6003 4810 938 31 4223 3285 6982 5665 4184 1067 1002 1071 440 504 464 460 451 444 439 437 
413 409 407 408 410 414 415 434 476 486 875 852 1932 5135 3629 3026 4052 1970 809 2925 5973 3325 1164 2820 4632 2211 3578 4702 2764 9300 1066 4903 2722 3702 3432 7181 4949 5144 3023 3068 3000 1521 5462 4280 5294 2192 6447 1474 4429 4971 4534 3915 7163 2197 613 320 744 579 544 496 467 446 431 421 
629 637 651 673 704 747 808 917 1088 1145 2659 3630 7115 7766 6235 1527 6209 5485 8986 2231 6543 7199 760 4675 3284 4443 6471 4883 4081 1440 6041 4794 3177 2966 4728 7059 6304 3682 9635 6319 2507 5166 2061 4342 6531 4208 3457 2513 1150 3898 5531 5406 9274 3727 1652 1431 750 773 692 670 651 637 629 626 
465 466 472 482 497 517 541 578 659 990 1452 2649 3745 3493 4075 3578 3264 809 4095 3369 2086 2361 7088 5375 4572 5536 3113 4652 4031 4477 2566 1116 5129 3931 3741 5490 2032 4769 2976 1061 4071 3424 4390 3693 6097 3603 8951 1953 3318 4284 6993 2889 6370 4464 2843 1189 893 651 611 551 515 491 476 468 
548 549 556 569 588 618 664 725 798 2401 5305 1084 4800 5226 1468 6427 3491 4902 5689 2803 6023 4924 5630 2984 4888 2000 6395 3637 4626 4380 5198 4338 6069 3569 7227 3449 8794 2317 2777 3227 4599 1490 5066 4391 2585 2232 4749 3761 2259 3791 3931 4066 5773 5045 5288 2027 762 760 657 624 596 575 560 551 
534 537 544 555 572 595 626 679 817 2549 2900 4217 3292 4210 4147 3945 6356 9811 4426 5184 4652 1302 5115 5651 2789 2860 5391 5422 5911 1796 923 8372 4276 4599 3284 2683 5894 3756 2620 4125 4905 2672 579 2604 6947 4334 5843 2192 4810 1821 4474 1626 4720 2703 5174 4512 1267 746 678 611 576 555 542 536 
560 566 579 600 634 689 784 1055 2999 3340 4482 5732 3483 2550 3644 4074 4215 3405 5885 5017 7352 2029 3555 7157 3761 5500 322 3802 3125 2818 5506 2769 5232 2147 2464 1819 3802 776 4563 3625 1519 3251 1469 3470 2471 3000 3646 7094 5230 3714 2419 2225 6244 3824 2247 6849 2014 814 667 627 598 578 566 560 
505 510 522 540 567 608 669 864 2038 3494 6444 3885 2511 4958 3198 3553 6454 2407 4223 6085 6305 4093 7540 5848 5737 2432 3912 4787 2260 1623 6465 3469 6882 4413 7297 5482 5055 4180 3127 6431 4419 3411 4978 2061 2390 1367 1474 2473 3216 1321 1819 3416 4567 3724 2095 4125 2170 762 666 586 546 523 511 505 
616 624 645 682 747 865 1122 1999 3712 1903 3651 2993 5598 6915 7898 5950 8188 161 5800 2551 5544 2804 4460 3154 3421 5315 5192 2909 4067 3998 9024 5839 3018 4692 5281 2797 3731 2384 4631 3529 4417 3739 2435 2928 2609 4210 5242 4955 4224 5750 4724 1235 6454 6718 5911 4461 3362 1099 808 733 684 651 630 618 
577 579 588 606 636 688 803 2008 3867 3659 1579 2054 7509 8601 4174 4628 4064 2289 834 4918 6451 3510 1198 5461 8496 1211 3641 3943 1464 1569 3558 4972 6343 3640 2081 4955 6258 2376 6086 3668 3548 8788 5400 4029 4888 3654 4451 3602 5356 7775 3839 3340 5599 2196 2104 5073 5819 1318 797 700 647 614 593 581 
601 598 601 611 630 660 718 1488 2973 4868 6284 2658 4089 4516 3089 5659 3993 3433 5581 3175 6920 1059 5513 1776 6032 2884 2195 3033 3886 6059 9364 3261 670 4294 3357 3379 6203 2786 3568 4046 3013 5298 6395 4146 3001 2668 3066 4180 6094 3947 4482 3350 3860 3575 1515 3788 5536 1846 926 773 701 658 630 612 
533 540 557 587 635 715 871 3238 7800 3242 9199 3093 2909 1943 5004 3669 2312 6683 7459 3120 5214 3135 5931 7588 5667 4667 4303 2194 6326 5487 1069 4449 3453 3872 4330 2683 4975 6165 3432 3573 686 3099 4689 1238 2418 3252 2870 2842 7383 4546 4988 5909 4236 2164 3286 3123 3910 2075 802 677 610 571 548 536 
678 676 684 704 741 811 1035 5894 3630 3000 751 2646 4822 5879 792 3445 5170 3818 3721 3648 7448 1182 4843 2279 5663 719 1002 3106 4247 3499 5242 4222 8579 6236 4833 3352 6390 4510 1562 3188 2343 1593 3002 5086 6407 4712 3704 4112 2950 3244 3113 2823 3931 4516 7687 3863 7060 4174 1249 974 837 762 717 691 
606 605 615 637 678 764 1169 4699 2892 2432 2628 2797 4617 3835 8678 4756 5855 9550 5008 4292 4391 5550 4781 355 8159 4107 1215 4449 1691 4013 4586 2595 4693 3244 4858 4103 5684 1188 5141 2578 4173 2789 2410 4185 7499 4976 3333 3167 1967 4025 7083 3826 4747 647 4235 2431 7875 2908 1156 875 751 682 641 617 
650 644 649 666 703 779 949 6780 6023 3581 3602 1097 2258 4446 7202 1521 5147 6225 7470 2287 6277 5480 3525 766 4284 2043 4552 1014 3795 3998 3650 1732 2669 4384 2819 2987 1361 1062 7963 2952 7658 3561 776 8715 8302 6786 1850 4443 1610 6368 3441 4413 4173 5879 5010 5592 3689 3730 1346 923 799 733 692 666 
541 565 600 651 728 858 1138 3642 7036 3609 4740 2883 2490 3443 4317 2141 3353 9486 7222 1918 4642 2016 3530 5683 458 2708 4836 1131 3351 3729 3580 3017 5916 7304 4855 4760 5466 5171 1321 7418 3555 4235 3435 3345 6156 4796 5052 2977 6133 2458 1839 1457 4273 2745 9543 5154 5057 2221 720 581 535 520 518 525 
617 619 627 643 669 721 927 1874 2360 5729 5675 3163 1141 5586 1756 3464 5781 4804 4664 6688 3944 3697 6674 3548 3326 1261 4468 2345 1733 5918 3515 2944 7553 2731 3587 7802 3951 4389 9424 5871 4520 2186 5142 2597 6532 3597 5134 6343 4976 3786 6323 2961 5153 1926 6333 4010 6348 3540 744 706 671 647 631 621 
665 678 703 745 814 948 1441 3531 4099 3530 6295 4130 6182 2400 3126 6680 3116 3220 2182 2565 3695 8908 4757 4507 4680 2941 7270 1029 3461 3007 7563 2815 4239 1932 6410 1230 5097 4624 7087 2733 4742 2384 4080 4206 6383 1301 3841 4892 2748 2544 3482 4974 3844 3290 2664 4843 7679 1799 958 810 735 694 671 662 
527 538 556 585 629 699 830 3280 3441 1888 2186 3618 5342 4689 9261 5972 3448 6325 9157 2602 4123 220 6505 5702 3735 3213 1265 5210 2140 5946 4090 6942 8840 902 6085 2040 5712 4098 2002 7446 4311 3577 2552 3193 3607 4386 3593 1885 4294 5548 6615 1585 6781 4966 3534 5797 6420 4894 954 701 602 555 533 525 
627 633 652 685 740 835 1045 3662 8541 6124 1805 4139 5570 2730 1227 2872 4698 2367 2302 5314 2352 3844 4867 6612 2131 4220 5203 3123 1129 3504 3227 1196 5194 805 4804 1015 5137 6357 2118 3359 9328 2562 3877 1334 4080 3940 6697 6336 4338 6168 4075 1750 4147 4353 6680 1717 4267 3597 1161 854 739 680 647 631 
699 713 740 784 854 978 1266 2906 4929 3798 2916 4225 3855 2075 6333 2039 6395 1955 5377 4618 1624 2723 2437 1974 3189 9005 2643 2413 4308 6175 5681 8602 5964 338 2317 1444 6971 1686 3614 2496 8213 3752 7948 3069 5992 7542 4493 2692 3897 5260 3063 4516 4155 3196 3097 4445 10065 2562 914 808 754 720 702 695 
729 756 798 863 964 1136 1505 3789 3693 3823 4491 2201 5317 4497 6114 1466 6094 3267 3594 3051 1241 4480 2341 1173 3003 7523 5038 2075 5172 6186 9455 5215 3903 2220 5535 3496 4656 7397 7792 6748 7158 4540 5471 2745 5616 3862 4455 2605 3484 4795 5413 2783 4774 2376 4668 2837 8938 1503 890 787 742 720 712 715 
660 673 697 735 794 887 1057 1493 6958 2180 4887 2608 1521 5433 3249 5472 6784 5452 3056 4218 5144 1673 2913 4097 5644 2802 2319 5718 6189 4975 2851 4246 2424 3267 6440 3738 4844 9099 7520 3905 4433 5667 2629 2301 3659 5465 4591 2587 4845 6216 2036 2953 6399 4201 4103 3085 3730 1182 860 768 714 682 664 657 
587 592 604 623 653 698 776 1153 1569 1631 3029 6160 3441 5468 3549 3766 5370 3218 5436 3244 5044 6291 3570 4763 3605 6298 2944 2370 3473 5795 7561 1746 3597 5725 5461 6555 4456 2765 6990 3535 2585 5267 4164 2064 5074 1766 5471 2846 4029 2422 6848 4157 2539 5066 4911 482 2527 965 762 686 641 613 596 588 
730 750 782 830 900 1008 1194 1622 3828 4740 5566 6925 4294 3373 2113 4066 6762 2947 1514 5452 7229 265 4574 4597 7187 5229 2102 5540 5684 7280 4719 3642 1870 4304 3704 5912 5291 4933 3159 2456 6617 1373 2493 5538 2603 3426 7194 2645 5766 7354 4992 8687 4076 4557 6783 4739 1763 942 830 783 750 729 720 720 
576 580 589 605 629 663 706 811 977 3597 8863 3963 4283 4399 3700 4357 6506 4162 4751 7142 3799 6301 5166 1204 3776 1648 2383 5153 6446 4804 6828 2206 7889 3341 4586 6474 5515 5261 6102 3588 6103 3561 7083 5134 4033 5681 3304 4513 3683 5091 5526 4668 4573 1047 6487 3387 953 791 720 657 622 599 585 578 
507 511 520 537 564 603 669 728 947 1608 6527 5879 4357 3549 4583 5326 5488 7389 6340 3100 3911 989 3116 2167 7217 3802 5222 4245 3971 2317 3623 7699 4530 4681 2205 4162 1535 3932 3948 5176 3131 4704 994 4584 4965 177 2545 5158 5972 3138 4741 1900 5255 1858 5453 2166 801 629 610 575 548 529 516 509 
486 490 499 514 535 564 599 699 886 1059 3601 3800 8126 3617 2751 2086 2027 4509 3675 2289 6276 4498 5315 2133 7813 6377 5321 833 7436 6540 5491 2728 5379 1236 3901 3321 3792 3544 3973 2772 8750 2524 4688 2148 6636 1764 4787 3020 5412 1273 5635 3515 2933 3411 3341 833 705 666 600 551 523 504 492 487 
602 611 627 651 685 735 814 937 1312 1191 2349 3481 3080 2879 6598 2561 4049 6371 3799 2600 4730 1480 2751 3741 2176 5495 8017 5894 2555 5227 4933 4229 1842 5188 2296 5066 3085 4799 2557 7602 7013 964 5289 4216 5193 5092 1623 4093 2301 3496 5913 5326 6209 3714 2523 1201 931 752 696 660 633 615 604 600 
471 472 475 481 491 504 518 581 679 766 962 3653 5199 2432 3736 4526 2701 2567 6651 1804 1758 5204 6628 3714 6039 7176 5595 1829 6787 3878 5434 3946 7442 6190 5062 5627 4505 4586 2993 5699 4273 6671 5598 1201 2744 5347 3892 2623 4567 2768 3609 5697 7592 2794 874 540 591 586 553 521 502 489 480 474 
453 457 464 477 497 525 569 601 741 777 1081 2417 2868 2772 6892 3226 5644 4656 9919 4662 4325 629 4929 3209 2388 6113 8009 2038 5400 3590 878 2232 3777 6437 4793 1346 5335 2927 2674 3189 5738 4006 3775 5587 4642 2042 2913 5872 4913 7042 5306 3229 5851 1493 791 928 615 537 507 493 478 466 458 454 
415 418 423 431 441 453 461 475 380 696 877 1265 1394 2767 4032 3644 3374 4048 3294 2723 8414 3551 6140 5931 618 2247 4952 4625 8493 5525 2961 1117 4405 5329 731 4403 6025 4932 4789 5386 5848 4300 4880 2848 3395 262 7186 6524 2025 1453 2392 4920 1697 766 576 462 491 485 472 445 431 422 417 415 
561 567 577 591 610 636 678 742 951 717 727 707 1072 1107 6775 4471 3992 4942 3758 3694 2369 3115 7026 4417 3526 1338 4862 2019 6876 4763 2728 1881 4816 2197 4638 2656 7876 8516 3917 6898 4455 4070 7966 5742 786 5184 4220 4137 5336 4071 3263 908 756 1027 715 979 631 615 571 572 566 561 559 558 
389 388 388 391 394 399 398 399 307 558 666 863 944 1207 1751 4493 5928 4921 3390 4557 5835 784 5032 3916 4117 3079 3661 2311 8256 1275 6637 5496 3896 2113 1901 4638 7544 5104 2649 349 3796 6000 4084 2950 2425 2633 4240 2244 6301 6295 966 954 746 397 533 273 485 454 461 431 415 405 397 392 
353 355 358 363 371 382 404 421 551 390 345 442 290 727 826 1309 2918 7557 3955 4000 5682 1875 4916 2390 4487 966 4522 3499 2103 2557 6966 2905 1469 2305 1828 4528 3081 3616 5706 4208 7833 7402 3878 1319 3814 4193 3384 1257 5315 2129 822 568 502 746 508 715 414 400 369 370 365 360 356 354 
369 369 370 373 376 381 383 422 462 440 536 555 718 563 496 518 1258 7561 4625 5258 6376 3502 6693 3135 1161 5255 2726 1981 3852 6591 5806 1741 3237 7752 3978 2768 4493 2564 2043 3715 3425 812 3169 4265 4302 3510 3111 1928 1376 1004 575 552 650 645 438 588 442 453 413 398 388 380 375 371 
321 321 322 325 330 337 353 370 488 315 251 271 144 435 508 617 384 1405 2063 5593 2353 1187 3853 4423 7293 3821 3702 4330 8411 3737 3809 2813 5001 6404 4558 5129 3723 6018 6016 2652 5438 4482 7443 3934 5471 3087 898 952 401 1015 551 411 400 661 450 659 360 364 329 334 331 327 324 322 
272 272 273 274 276 278 275 299 303 333 432 487 585 482 315 300 652 758 607 934 2448 6395 3541 3961 3818 2920 4546 5570 5252 4331 3450 4173 4802 3184 4257 6448 1426 6315 7617 5980 5671 3256 4914 742 2182 850 638 332 707 525 322 390 445 421 274 398 325 328 305 291 284 279 276 273 
204 205 207 210 214 220 233 237 329 223 136 233 82 376 391 445 315 600 448 511 621 1301 4663 4515 2925 5008 4838 5057 1595 1003 6315 7142 2783 5193 5489 1993 3715 4266 4345 2605 2999 4022 2598 1098 567 364 415 542 175 615 386 300 187 417 304 443 204 207 198 205 205 204 204 204 
167 167 167 167 168 168 164 194 225 188 294 319 405 274 114 122 319 532 255 435 246 141 1327 947 857 3051 3641 2779 3893 5350 4454 3772 4089 1623 6275 2798 6483 4164 2876 3401 2212 966 345 282 510 457 372 167 474 355 152 247 277 288 121 293 204 209 189 177 173 170 168 167 
38 38 39 40 42 45 53 83 179 29 85 162 178 204 131 170 135 343 91 186 154 310 677 614 274 526 211 1311 1059 2622 1549 3598 719 2331 787 1001 1038 272 373 890 811 646 153 164 261 118 94 137 205 416 124 94 64 279 98 306 32 76 19 31 35 36 37 37 
19 19 19 19 20 22 28 64 150 36 106 181 198 206 110 142 153 283 66 146 161 260 495 502 325 268 261 784 371 695 364 844 142 696 547 27 110 166 181 591 576 573 111 112 215 153 114 98 234 383 107 100 82 252 77 276 37 67 19 17 18 18 19 19 
15 15 15 15 16 18 24 58 138 39 108 178 193 199 113 144 150 252 82 138 169 259 415 473 321 196 239 625 331 392 224 555 110 474 451 137 62 155 143 480 465 508 114 106 187 154 110 89 235 371 108 96 82 241 79 263 37 65 19 14 14 14 15 15 
13 13 13 13 14 16 22 54 131 41 111 175 188 192 118 150 147 233 98 135 172 259 371 457 317 170 224 541 331 289 173 433 102 372 401 169 68 158 122 411 401 461 122 102 167 152 104 82 233 361 110 92 83 233 84 255 39 63 19 11 12 12 12 12 
11 12 12 12 13 15 21 51 125 43 115 169 184 185 127 155 145 219 114 136 173 262 345 447 318 161 215 495 341 246 144 363 96 311 377 183 76 161 103 364 360 426 131 101 156 152 100 79 232 355 110 86 86 226 89 248 41 63 19 10 10 11 11 11 
10 11 11 12 12 14 21 47 119 44 118 164 180 180 133 163 145 212 129 139 176 261 327 440 317 163 209 464 350 229 126 320 91 272 366 193 82 166 90 330 330 399 139 100 146 151 95 76 231 346 112 82 89 219 93 246 43 62 18 8 9 9 10 10 
10 10 11 11 12 14 21 45 114 46 123 158 178 173 143 169 145 209 145 141 178 262 318 437 319 171 206 448 363 223 112 290 85 249 367 196 85 170 79 304 306 380 149 101 139 152 92 75 231 340 112 77 95 213 98 243 45 61 18 7 7 8 9 10 
