P2
64 64
10240
64 105 235 309 172 186 210 44 49 121 189 134 203 159 123 143 14 158 167 103 16 74 171 163 72 84 88 86 163 169 108 74 50 49 99 66 66 19 111 149 151 117 130 105 263 103 125 50 39 153 162 147 237 120 81 85 22 63 65 44 89 102 199 138 
115 172 77 202 175 260 11 238 140 97 92 99 135 106 215 78 191 170 287 149 118 109 159 57 159 71 262 200 65 71 95 52 41 117 142 82 108 185 75 222 50 78 71 94 192 51 143 83 108 170 98 69 28 110 211 93 131 38 237 125 130 199 95 57 
131 116 94 51 88 70 61 126 206 146 63 182 213 115 342 91 197 125 90 118 216 124 180 71 249 133 130 187 36 110 40 7 120 153 54 12 54 197 115 68 101 118 61 92 135 75 91 61 17 109 105 75 109 41 105 108 171 56 173 111 111 126 102 141 
130 69 66 90 82 147 221 108 94 117 130 132 188 120 167 59 134 193 92 127 42 54 60 99 150 161 24 179 101 71 242 90 97 113 102 58 128 50 101 66 74 98 118 44 183 61 32 14 80 177 174 23 165 17 53 73 107 132 38 45 13 77 108 158 
81 98 46 253 174 89 123 62 93 111 95 129 196 190 5 106 135 236 69 142 75 24 23 141 71 158 64 204 211 89 173 33 122 177 60 189 97 81 176 99 69 72 115 149 139 139 59 100 94 141 156 22 195 63 128 130 43 66 21 47 114 127 226 133 
31 99 137 150 143 179 42 106 114 75 235 63 169 137 164 94 92 41 60 146 85 32 16 161 48 40 126 92 93 86 91 38 119 150 50 72 76 25 55 35 105 81 70 113 111 127 34 69 94 193 104 40 147 94 167 137 92 66 182 160 150 103 114 137 
82 93 130 134 181 182 108 46 190 188 68 227 101 63 80 83 202 154 48 31 83 86 92 150 137 33 275 198 51 90 113 40 128 113 42 74 49 12 73 37 42 93 208 111 86 129 84 146 125 207 66 141 31 98 51 111 74 80 200 124 113 139 113 108 
180 163 64 157 207 173 143 87 106 190 116 252 135 87 88 189 52 84 37 35 74 67 39 146 233 161 168 58 72 112 163 33 110 134 114 110 154 89 25 28 149 123 39 31 57 96 86 104 141 103 82 11 92 96 121 161 198 159 81 57 58 103 37 25 
78 45 57 144 177 186 169 181 134 53 200 222 30 7 172 96 41 100 45 194 197 49 137 229 247 82 82 48 120 81 54 114 81 75 100 157 112 124 116 49 115 1 82 89 90 146 89 25 52 24 91 71 123 87 50 50 96 187 126 93 88 192 74 54 
128 155 103 161 165 157 68 110 106 88 104 55 151 56 119 96 20 212 29 149 159 145 103 116 79 225 242 5 71 60 29 171 133 189 67 76 35 74 39 60 88 82 55 47 44 100 47 167 55 90 43 63 36 43 56 199 97 52 138 181 42 137 209 125 
208 199 63 158 121 206 93 157 235 140 78 60 96 111 68 129 178 87 96 40 16 142 222 131 138 225 111 95 71 186 170 18 88 105 137 110 94 59 75 136 141 216 164 33 83 78 27 140 88 128 67 61 13 24 111 119 28 51 6 68 67 37 57 106 
211 251 58 156 156 150 146 104 137 107 60 118 56 257 150 121 177 91 64 116 126 80 182 162 25 164 59 80 146 198 169 90 143 46 116 134 65 70 83 66 130 74 94 50 119 39 112 110 107 70 69 147 158 30 91 40 102 100 71 111 67 132 100 56 
123 35 155 142 21 145 195 134 172 97 97 158 74 273 256 60 131 149 40 86 27 121 74 95 102 70 68 194 61 23 131 36 31 140 100 145 121 63 77 126 100 63 57 85 53 78 100 35 77 28 148 122 109 51 139 209 114 77 159 99 20 20 49 50 
44 56 17 171 123 65 120 101 60 25 131 71 34 120 197 95 86 17 71 105 118 23 49 143 172 117 154 8 51 74 160 37 63 88 89 163 55 115 75 64 58 125 151 92 95 84 107 97 67 108 30 79 86 252 75 255 62 150 27 125 168 59 163 155 
213 123 31 128 89 129 58 31 122 138 153 162 176 103 193 65 140 76 12 114 188 39 193 194 51 174 86 130 18 141 282 199 85 115 73 187 25 108 84 65 54 124 121 114 85 99 37 40 82 103 60 98 51 151 167 68 69 119 90 62 136 72 109 49 
135 77 140 58 57 134 63 6 101 91 150 152 149 168 94 83 106 24 58 30 45 113 35 147 213 127 112 263 120 187 155 150 91 34 86 96 40 143 101 236 158 6 34 80 66 115 97 56 104 110 82 61 132 149 66 90 5 77 28 81 85 18 51 126 
17 83 85 99 198 359 141 35 52 140 142 97 134 158 107 158 45 32 107 200 72 82 102 120 240 33 117 90 199 169 61 77 60 119 178 154 89 145 185 154 126 132 111 119 189 146 67 116 145 95 126 113 110 139 80 85 106 69 14 78 163 45 88 156 
102 103 195 203 106 198 133 84 182 165 63 138 111 145 146 202 201 134 174 154 139 168 62 17 66 90 71 131 109 43 241 211 149 87 16 80 86 98 231 127 134 180 149 78 75 106 68 231 36 154 68 89 82 177 120 101 124 7 56 37 44 36 57 176 
105 103 97 186 70 27 85 171 139 144 194 165 183 133 98 85 162 167 212 106 131 52 98 190 194 98 208 216 155 97 45 126 148 137 186 97 95 26 119 93 210 197 35 49 74 121 35 9 173 188 48 84 119 60 88 138 16 12 74 150 62 36 40 56 
114 160 156 142 57 103 141 191 62 188 111 289 354 132 192 108 181 32 74 60 50 55 67 60 100 71 178 320 263 117 73 92 147 89 78 127 90 169 116 156 177 206 59 183 134 251 67 184 102 137 97 99 90 174 129 122 43 81 158 76 119 162 94 39 
151 137 111 115 86 74 80 123 84 126 91 31 58 30 17 102 161 141 43 148 111 181 131 127 67 49 116 127 210 217 83 92 113 215 170 147 215 98 98 54 75 134 59 75 109 61 36 67 118 145 107 44 44 81 108 105 72 173 77 88 42 117 128 73 
54 129 164 167 121 36 81 136 109 55 42 111 79 97 47 147 101 145 27 116 151 86 189 232 90 162 156 181 119 105 118 123 133 220 109 212 152 163 199 60 46 166 84 169 103 134 83 106 62 10 100 116 122 95 214 51 96 164 114 86 114 88 133 10 
99 112 86 142 99 76 133 97 126 97 43 35 85 139 162 208 141 119 86 160 96 92 92 67 98 20 167 150 55 24 53 124 215 253 168 74 239 201 174 44 129 40 157 103 181 113 106 119 102 98 157 197 112 67 239 88 103 64 94 73 144 92 18 117 
86 175 169 93 24 155 81 75 143 138 35 146 167 157 92 108 66 167 149 134 38 109 37 107 99 191 61 217 85 63 134 102 22 121 85 229 199 74 153 158 86 94 78 132 152 11 59 106 107 89 32 60 65 23 187 78 82 15 65 86 142 13 100 36 
327 93 203 73 71 42 58 50 183 97 86 200 74 158 278 26 59 81 107 237 114 89 71 107 227 179 309 170 171 188 79 39 55 240 349 74 72 129 176 46 43 255 53 57 200 129 132 119 127 130 40 43 109 66 134 181 82 105 164 111 108 89 134 83 
158 132 179 94 112 209 110 88 132 83 32 31 105 230 247 92 186 116 105 133 110 19 60 149 117 212 37 59 148 254 212 123 104 147 137 77 201 261 162 154 140 45 9 168 271 168 207 46 72 47 90 77 63 77 88 157 181 73 68 53 110 89 75 65 
110 155 51 29 152 86 115 111 87 115 29 92 142 229 98 85 218 89 90 152 246 95 187 130 216 63 152 258 293 127 397 429 348 265 236 135 201 80 162 181 58 209 49 174 141 113 61 11 19 61 124 165 45 209 42 111 147 153 82 100 87 66 120 151 
215 328 70 149 250 325 71 111 108 159 116 170 76 46 115 76 104 45 146 254 12 212 48 78 130 280 164 104 294 120 132 273 401 344 211 508 202 402 32 44 264 76 47 168 104 68 57 68 47 160 60 92 79 171 208 90 179 123 69 84 23 94 149 126 
64 145 179 131 182 100 82 113 39 96 51 126 148 165 30 137 178 69 56 257 73 109 46 61 290 238 236 325 208 590 384 123 134 172 379 67 202 229 222 104 119 66 144 112 182 123 146 211 106 192 12 69 201 55 104 34 150 107 73 126 48 124 172 48 
222 188 14 179 238 237 58 185 155 34 156 83 343 92 84 263 137 75 26 239 110 131 57 15 74 350 63 165 376 125 559 312 431 808 478 379 153 158 309 78 111 122 111 71 152 50 58 118 101 78 125 65 173 42 114 65 96 59 189 184 62 76 240 104 
303 293 99 94 60 63 107 82 274 215 82 47 421 127 56 92 204 107 130 89 72 25 156 86 115 294 343 240 118 644 799 1578 1378 959 533 322 469 201 144 210 183 100 113 73 148 177 130 23 51 34 146 69 143 110 180 18 85 39 89 27 90 166 91 162 
659 192 175 183 135 91 178 87 108 217 95 112 200 166 52 38 144 121 54 175 72 93 260 162 183 159 413 438 289 73 1470 2793 4101 742 624 703 473 76 117 249 198 69 80 85 171 116 142 169 145 46 42 61 82 160 47 16 112 69 85 105 21 93 199 156 
1993 522 177 287 64 45 79 198 84 82 180 13 75 88 76 5 147 189 171 167 68 125 259 124 186 84 315 565 556 310 612 7982 10240 1238 1098 688 461 35 151 270 167 150 17 146 200 81 219 163 16 138 25 80 26 156 109 31 73 60 9 91 56 246 238 698 
831 79 171 159 93 179 110 237 22 126 206 145 102 84 77 120 193 89 202 160 147 96 210 212 131 184 252 575 378 150 1458 2739 4050 782 734 559 462 173 103 270 145 202 113 87 147 13 116 124 62 138 64 153 84 70 161 96 67 86 129 44 50 55 153 322 
294 397 85 115 111 138 22 147 33 270 199 168 100 210 101 62 100 98 167 176 159 145 143 219 46 378 223 330 281 706 581 1384 1502 1200 439 251 403 275 119 243 93 137 25 105 22 95 45 147 65 10 32 299 108 129 59 180 158 46 59 73 32 188 71 123 
155 91 79 45 150 221 102 30 102 120 83 201 120 241 21 157 168 173 35 155 144 185 86 80 130 361 123 192 449 216 840 562 247 552 371 316 13 201 328 142 79 40 140 107 133 74 122 143 136 138 62 191 141 113 54 107 56 53 141 183 134 74 100 8 
32 221 285 46 68 81 100 48 55 75 39 207 95 101 95 203 171 215 112 186 220 95 83 159 78 112 290 161 76 358 320 44 113 252 539 251 417 106 211 347 80 52 79 212 130 80 113 175 12 59 127 66 78 59 36 133 72 78 70 120 43 89 43 77 
199 251 174 75 173 103 34 160 153 200 246 41 86 90 116 67 71 77 125 113 204 139 148 199 179 113 373 430 382 343 279 451 296 128 103 295 110 217 164 235 46 82 116 108 179 187 72 130 37 112 34 105 70 114 102 143 50 81 113 191 121 125 177 74 
80 127 12 109 133 69 105 279 123 73 215 73 158 113 16 48 53 132 129 140 192 146 191 120 192 156 143 236 130 185 200 320 488 453 249 160 310 65 132 170 120 152 147 184 179 184 29 172 8 134 148 146 107 31 74 13 87 109 60 73 23 45 168 82 
63 76 125 184 77 128 67 200 242 147 101 118 61 96 52 85 107 167 153 212 234 25 38 121 87 167 170 263 60 163 192 171 101 192 255 148 47 111 116 188 82 104 40 125 129 26 168 92 77 220 316 64 75 8 75 81 46 148 126 94 17 86 67 106 
88 183 239 80 170 216 171 24 152 142 153 131 104 78 97 187 68 94 133 146 78 85 255 203 129 80 157 62 4 307 324 24 28 63 117 219 60 259 152 166 181 49 64 67 218 147 51 133 40 161 237 90 79 113 54 106 62 43 41 39 23 78 69 234 
52 183 98 179 174 140 97 143 134 191 82 100 47 66 66 140 126 71 72 90 170 156 90 74 178 169 102 87 243 87 199 89 81 122 62 34 129 97 147 112 85 77 125 63 94 176 100 150 84 62 98 209 92 26 89 152 42 55 136 24 70 60 110 70 
164 11 99 192 120 190 155 172 83 319 131 169 185 255 61 169 129 47 100 153 128 188 62 115 35 177 173 261 153 115 219 193 136 83 46 54 113 163 55 105 54 29 88 51 95 72 84 86 137 118 132 101 56 47 61 94 73 119 86 46 131 48 151 107 
94 92 137 147 130 95 191 127 113 307 114 175 133 128 48 74 35 107 79 29 171 30 168 88 66 170 197 94 231 167 186 121 115 108 143 43 167 134 204 25 219 145 35 58 110 73 117 106 122 68 132 93 63 13 57 26 100 81 42 62 103 50 158 72 
71 188 263 134 61 131 181 81 120 148 158 42 17 143 131 201 27 40 101 139 83 63 101 70 94 123 115 220 133 189 253 123 84 57 146 155 205 90 119 13 93 72 152 84 119 62 99 92 110 53 32 76 42 52 131 56 81 49 60 50 116 50 71 81 
29 65 249 168 223 260 125 50 137 123 210 171 153 132 146 169 160 204 192 227 264 137 137 285 67 195 142 132 73 126 132 104 120 116 120 186 342 156 129 68 103 68 71 25 43 41 62 78 165 104 132 203 266 92 129 15 139 147 71 55 76 126 78 77 
93 47 86 56 170 125 91 38 122 180 73 119 38 75 205 128 48 67 84 92 54 34 162 287 74 183 23 85 122 144 156 77 136 107 39 108 195 232 123 162 239 74 38 151 138 167 155 163 95 60 115 117 190 131 88 30 155 92 59 42 143 162 64 95 
220 138 53 17 30 30 84 102 98 146 276 134 111 52 183 45 339 196 46 51 46 176 159 159 67 209 148 84 135 40 33 182 189 247 94 125 99 77 91 88 85 19 64 195 16 198 95 219 95 83 148 145 109 71 94 167 74 84 151 71 142 157 33 41 
195 158 66 99 130 31 69 96 104 89 126 172 155 143 97 114 225 20 76 114 173 89 105 176 48 183 254 113 139 188 138 27 110 58 91 245 90 57 111 195 180 106 85 24 200 183 26 65 52 114 115 139 28 80 94 58 15 42 208 171 68 30 47 20 
229 85 91 130 249 83 87 66 146 98 174 174 128 18 123 111 41 92 97 153 91 106 23 94 204 79 171 41 66 68 30 72 74 127 185 99 203 190 107 164 156 13 49 50 33 57 73 80 79 100 120 130 55 144 35 94 80 14 153 99 33 118 57 81 
64 163 51 164 145 82 242 52 107 139 164 25 121 75 109 150 43 30 67 143 62 154 147 10 96 74 79 29 210 31 184 30 153 260 180 58 69 70 103 46 106 208 111 134 130 49 45 98 34 145 39 193 111 181 71 109 48 48 61 96 65 32 28 148 
198 191 72 167 141 92 208 23 357 140 262 156 126 106 58 120 51 144 122 177 16 114 146 48 72 68 95 71 190 32 156 48 73 176 119 76 42 169 97 111 65 57 51 47 53 49 81 79 37 115 77 25 67 140 74 26 53 103 22 50 155 40 6 45 
84 87 50 23 155 184 87 137 221 220 160 45 136 192 115 76 88 180 137 67 68 34 81 96 129 78 82 97 178 143 127 89 64 71 31 25 123 69 125 83 138 85 103 58 49 33 123 120 72 115 240 100 113 92 79 117 111 128 96 35 74 118 52 82 
26 50 188 100 126 64 52 172 65 143 110 153 190 102 101 101 184 147 111 142 53 88 89 85 132 76 89 126 56 142 72 74 164 157 158 227 41 30 134 46 147 172 121 68 108 63 87 121 83 79 235 122 54 33 39 126 87 89 102 102 87 82 164 201 
86 113 121 45 98 37 118 70 122 149 37 73 70 100 46 168 159 72 104 60 91 54 221 162 150 53 24 153 24 175 86 82 34 83 205 91 103 34 188 167 45 176 190 13 16 119 35 104 70 28 61 13 41 116 102 143 152 75 150 115 84 47 116 197 
101 220 266 43 224 192 102 31 232 91 41 13 86 81 99 162 157 117 124 29 48 85 99 134 70 40 51 80 68 66 107 132 171 153 59 5 59 197 271 123 150 87 147 130 102 44 132 87 13 67 19 95 62 73 64 41 96 35 126 80 128 104 127 177 
73 31 230 216 81 116 175 252 25 53 117 91 127 119 52 59 25 121 164 77 95 104 80 79 95 114 116 84 188 58 104 44 123 100 38 37 36 91 126 131 204 96 32 146 161 81 70 75 96 136 27 24 163 178 84 87 151 63 186 70 113 64 21 45 
75 24 119 91 95 150 158 262 190 71 181 51 75 116 79 114 91 161 11 52 107 110 102 164 65 46 103 79 169 86 180 145 59 137 121 78 39 81 130 197 197 78 56 67 69 33 50 40 154 83 99 72 198 81 151 114 51 43 127 112 127 18 90 140 
158 93 193 161 28 205 171 25 138 60 173 77 89 140 126 214 176 117 165 91 203 287 127 29 25 50 52 117 96 84 128 191 47 104 73 123 131 285 80 147 128 111 74 104 39 77 189 202 40 33 69 62 143 52 131 168 91 72 143 139 118 141 44 56 
166 162 172 193 139 225 143 113 94 198 83 209 43 95 158 158 62 84 154 122 135 56 100 104 71 66 56 125 136 83 206 129 77 140 64 59 76 199 57 51 105 101 51 98 53 108 52 87 47 85 149 89 14 178 126 62 96 25 91 106 52 92 61 53 
133 259 217 178 141 30 24 29 84 106 38 212 132 152 237 187 168 118 117 239 137 170 72 114 48 153 132 53 245 92 227 110 101 147 68 150 136 114 133 124 92 37 37 111 102 23 176 115 75 22 90 111 101 65 91 76 20 54 64 82 165 32 70 58 
164 174 111 30 40 77 97 176 70 89 81 186 167 167 249 76 38 67 35 189 38 142 142 69 34 47 55 123 58 77 146 127 143 244 91 63 177 72 176 139 62 51 76 64 64 31 136 161 138 94 91 150 183 70 140 41 26 191 157 51 85 23 46 51 
139 140 96 138 106 235 108 212 115 73 55 105 158 99 118 60 67 60 118 24 82 130 95 206 19 103 215 105 10 16 118 173 30 76 84 100 102 93 119 149 64 195 185 130 131 142 115 168 125 262 204 120 183 38 64 121 79 75 22 44 63 29 71 68 
45 114 229 188 87 318 166 81 37 123 35 68 66 62 118 118 76 124 123 99 113 28 128 102 194 150 187 170 108 145 70 50 72 37 31 91 100 150 111 84 45 164 159 83 118 221 160 143 42 179 98 79 81 69 42 95 108 36 106 87 77 36 122 37 
