P2
64 64
10240
317 235 101 295 414 66 150 177 206 41 190 84 80 183 125 22 20 21 104 152 195 220 130 152 78 53 159 265 239 125 146 204 68 313 108 64 45 37 35 46 76 77 179 142 79 65 149 86 180 179 76 91 63 51 108 241 74 50 78 150 283 157 114 183 
250 266 87 116 106 196 206 87 115 91 116 85 123 33 85 129 162 261 50 77 85 71 43 104 194 43 109 115 162 75 51 181 15 147 142 56 144 163 191 205 153 60 112 49 97 177 73 155 143 161 107 81 103 49 76 109 81 84 4 105 165 160 28 58 
143 208 183 149 50 129 129 79 101 170 231 136 123 16 40 88 115 92 56 53 15 36 96 94 174 154 155 161 32 53 60 169 72 144 144 46 157 202 150 130 91 31 51 118 105 69 125 156 127 101 153 99 54 68 240 138 133 139 105 156 66 133 87 123 
93 96 167 121 78 114 149 217 106 91 33 236 167 120 115 165 74 122 174 173 121 59 59 80 92 78 87 95 76 76 22 71 124 254 61 149 104 24 80 47 116 68 51 122 58 144 158 129 102 58 117 112 62 46 66 82 124 103 5 69 44 59 96 113 
236 131 159 201 42 156 80 110 117 72 165 186 76 207 39 88 98 161 223 71 165 98 37 48 59 123 43 54 137 212 71 128 142 56 149 180 41 22 55 63 159 46 126 55 107 66 20 12 60 154 190 162 93 46 94 57 166 117 44 55 86 99 89 51 
102 199 67 177 117 175 154 222 110 75 79 121 83 281 123 85 134 145 57 189 96 39 51 58 82 37 54 37 42 141 99 79 36 64 70 117 169 103 149 119 39 79 138 84 108 96 121 122 113 57 183 111 54 86 118 89 40 42 29 27 87 110 67 57 
181 153 144 197 108 60 114 37 176 183 102 129 80 163 266 75 56 81 31 90 95 56 66 46 12 20 94 192 244 66 114 63 45 73 170 44 202 84 98 57 31 27 91 66 80 79 83 92 203 102 89 35 41 77 76 36 51 50 19 48 54 88 104 58 
57 97 154 82 112 47 90 132 150 164 121 30 79 23 161 118 185 49 45 54 54 108 127 109 162 100 150 224 135 76 137 73 52 93 82 94 133 24 133 61 29 104 86 56 17 112 168 124 72 10 81 56 0 57 104 82 56 19 40 69 81 96 171 30 
107 161 162 59 150 134 52 123 89 59 119 186 158 59 54 113 248 161 88 146 137 64 153 150 60 30 187 192 113 126 284 161 123 120 206 153 87 32 61 54 117 89 8 58 37 71 127 76 75 106 138 112 36 79 124 74 57 44 43 15 56 148 173 91 
24 95 72 70 126 137 115 29 130 85 59 95 133 5 119 49 29 43 81 131 110 112 16 42 142 150 102 62 162 138 185 138 160 22 120 48 75 74 111 133 70 40 91 66 66 50 147 97 62 68 105 28 98 161 116 23 17 75 110 26 31 75 102 110 
131 217 130 155 219 67 111 98 47 8 62 93 111 53 73 118 102 99 26 50 76 265 150 18 101 155 127 43 36 51 79 134 24 82 145 63 51 140 224 124 142 72 89 124 115 76 47 129 50 115 190 198 91 116 73 123 32 77 151 88 51 4 2 126 
87 75 136 103 155 149 175 210 193 53 113 50 55 88 48 181 253 105 48 145 95 146 59 55 41 24 43 42 81 108 129 72 91 29 94 131 126 58 129 76 76 96 159 24 164 21 102 148 94 120 135 199 81 92 135 82 49 90 98 22 56 30 75 35 
77 58 137 86 91 133 186 167 139 121 123 160 243 177 131 111 65 17 83 156 151 17 81 69 98 68 79 150 108 45 164 59 119 95 102 131 92 151 47 125 141 125 138 70 79 205 153 79 50 44 41 56 62 168 130 57 58 131 114 8 32 116 72 174 
101 114 136 139 58 6 155 96 208 153 109 115 114 62 150 34 182 12 66 111 66 160 191 44 60 189 101 17 158 132 69 117 234 175 187 120 55 69 122 48 203 105 67 53 101 109 184 76 67 80 62 134 161 82 137 87 73 70 82 82 112 193 17 142 
21 62 123 95 28 41 119 319 211 97 193 96 208 133 126 102 156 176 185 270 177 58 264 101 114 97 75 123 196 100 47 68 15 51 112 84 88 123 74 74 121 74 143 18 120 104 95 225 99 176 77 72 38 112 116 184 73 91 83 49 69 121 129 107 
216 101 120 46 148 86 58 143 165 233 80 116 108 300 110 132 157 142 187 245 56 170 150 161 175 34 62 193 89 56 130 223 146 74 48 49 82 49 86 67 166 174 101 56 132 58 27 42 147 103 141 110 131 82 49 62 97 86 63 37 154 214 194 97 
150 82 46 63 152 140 193 136 127 159 181 137 189 285 245 76 194 87 63 123 90 85 51 108 76 109 98 134 30 105 78 67 80 169 165 111 119 111 54 128 75 103 68 129 108 100 84 55 111 63 177 17 45 103 109 169 120 64 92 188 120 35 53 40 
262 88 42 75 58 193 191 72 99 255 172 156 141 142 96 162 76 92 100 64 7 96 61 43 100 41 110 111 116 58 152 189 97 8 128 180 94 115 125 56 73 136 157 59 113 117 65 55 49 99 65 66 33 134 27 98 147 23 114 251 95 71 80 73 
150 124 53 88 55 128 125 81 42 212 147 180 200 49 186 89 174 133 87 149 98 136 47 145 60 95 60 154 82 10 55 60 10 45 121 94 80 74 182 91 206 26 165 48 55 31 72 8 53 5 47 116 39 95 36 31 14 31 28 126 85 98 21 112 
132 145 97 111 80 52 47 58 61 87 47 186 178 77 120 177 121 119 136 156 152 27 100 111 100 191 129 142 79 61 108 32 86 143 108 85 159 229 109 277 194 113 43 69 103 171 180 112 64 109 63 99 63 52 81 89 162 50 52 64 79 24 111 90 
82 69 53 199 179 96 33 41 92 92 30 124 101 195 238 131 48 84 81 173 153 44 28 108 70 184 78 123 206 142 197 82 48 77 65 92 48 155 25 88 11 195 70 113 94 43 127 109 14 38 130 9 121 130 31 89 82 33 47 147 138 103 131 13 
140 86 63 49 42 74 120 128 189 161 107 55 32 42 62 143 77 94 157 162 191 164 38 120 91 60 179 227 113 140 250 125 118 131 109 87 122 178 181 104 120 218 171 111 53 45 69 67 89 26 81 78 122 84 104 92 45 11 113 119 175 170 54 10 
149 80 145 92 139 142 172 105 133 170 49 32 110 105 209 84 58 263 242 89 50 77 120 44 197 77 74 156 28 46 169 214 139 135 157 60 110 123 35 34 38 179 168 65 75 103 118 102 176 25 105 36 49 141 89 41 51 143 43 118 61 65 102 38 
56 47 83 132 155 200 92 235 109 309 102 73 124 98 91 130 29 268 288 264 173 79 83 172 63 228 130 287 151 46 75 244 276 222 113 119 129 126 167 104 189 188 287 60 173 61 103 169 174 91 117 157 76 104 65 18 50 186 128 56 61 9 130 69 
184 104 30 88 185 78 148 47 105 129 139 64 131 102 86 113 88 58 35 69 145 90 127 131 160 107 196 89 234 150 90 51 39 135 250 235 112 100 178 19 87 202 161 42 102 88 37 142 127 149 130 83 68 35 81 21 16 39 39 39 104 124 66 6 
22 53 64 177 50 18 249 289 261 77 70 128 61 163 77 141 104 142 113 29 293 45 91 113 54 161 109 264 59 285 211 181 255 325 279 96 204 244 227 291 215 50 285 92 92 110 83 95 109 80 190 76 46 24 86 82 40 31 59 97 39 136 125 38 
138 121 145 129 117 57 128 93 94 187 166 114 13 242 70 227 191 177 133 189 318 153 164 220 170 135 183 39 63 94 296 346 335 262 71 200 209 247 125 395 156 273 81 99 35 110 65 197 90 251 92 145 57 50 72 161 167 25 44 90 71 113 77 92 
129 164 184 196 63 97 132 183 304 282 111 86 174 270 192 67 39 140 38 220 122 78 101 133 186 192 110 40 252 160 188 383 334 242 63 340 109 155 159 168 199 226 199 189 31 139 267 235 48 281 201 136 79 46 65 113 122 22 52 66 121 93 104 126 
190 121 149 125 159 128 106 76 57 260 290 219 18 104 169 72 65 126 213 201 84 53 26 128 165 101 101 288 143 533 313 37 163 186 465 113 316 57 198 123 128 148 94 152 116 59 210 61 157 238 85 43 59 8 109 78 47 82 65 75 50 9 83 89 
286 494 261 22 149 21 202 171 226 164 192 249 73 70 87 50 107 163 178 76 86 183 32 183 254 319 188 259 461 146 609 291 325 692 306 529 85 376 265 48 11 304 125 42 145 77 71 91 147 148 35 127 122 93 59 202 164 71 90 49 16 104 119 103 
334 81 262 240 150 63 146 37 107 6 54 66 97 40 124 29 30 200 120 72 123 204 85 201 169 185 449 100 32 700 790 1610 1466 1009 443 113 361 422 158 82 253 211 87 67 228 33 54 73 71 69 176 146 84 61 122 108 145 101 90 55 93 101 108 142 
722 177 203 143 271 53 47 179 211 266 196 78 94 65 188 55 135 128 111 128 180 227 293 42 8 47 495 265 515 119 1490 2764 4052 676 563 746 336 39 143 146 397 134 36 74 217 19 67 74 195 92 152 100 34 125 159 74 64 101 133 110 70 66 179 248 
1995 298 285 123 171 178 155 156 128 134 82 90 202 114 60 172 191 129 129 95 151 144 285 230 146 163 216 443 667 347 663 7977 10240 1260 1075 781 315 151 54 216 268 233 209 23 168 108 51 39 145 98 46 145 125 136 32 56 84 88 201 15 145 35 10 701 
706 110 75 302 62 267 185 85 90 266 19 98 197 134 138 178 162 186 39 142 102 210 90 376 133 292 179 432 475 149 1393 2780 4077 757 739 666 288 284 215 124 119 158 241 60 164 110 145 35 41 187 38 84 85 141 203 135 134 34 63 95 116 25 91 262 
407 226 116 208 45 167 107 119 249 97 120 19 231 122 155 22 154 101 37 206 42 243 217 172 162 269 428 188 216 670 550 1410 1563 1273 408 334 235 432 60 150 264 130 119 48 72 150 171 49 30 116 69 24 74 26 18 16 53 82 56 116 122 121 180 147 
28 55 65 152 42 137 136 137 206 137 73 48 141 56 140 234 149 80 42 125 42 253 310 194 138 293 193 192 532 83 803 543 272 534 389 395 59 325 254 173 300 27 197 58 29 189 46 59 76 35 29 32 151 132 63 120 174 175 65 180 67 129 193 140 
95 187 235 87 29 34 103 19 59 113 52 113 62 136 265 254 60 185 93 119 154 197 42 188 116 131 176 271 105 415 267 173 138 162 495 318 258 99 177 125 83 141 128 49 86 181 35 59 113 102 82 111 94 222 231 124 76 93 15 167 106 98 124 111 
165 164 128 93 114 71 109 98 158 68 51 141 99 244 359 106 240 246 242 79 192 151 386 62 196 275 28 111 323 218 204 349 369 240 97 249 54 127 106 181 253 75 51 129 177 29 69 53 116 226 108 180 37 77 126 228 113 86 17 88 112 160 126 64 
107 167 84 85 88 39 62 172 184 106 47 56 85 93 318 85 214 11 171 130 95 65 254 227 376 22 325 155 289 33 250 367 384 327 189 10 87 115 171 168 232 217 121 233 245 133 76 162 172 141 111 78 104 82 106 107 174 136 68 101 118 109 48 24 
136 34 66 54 79 54 57 55 108 112 62 112 27 254 156 80 138 126 124 104 203 248 213 307 246 359 130 247 68 271 299 217 145 210 306 135 222 204 106 119 119 27 118 193 132 51 102 66 121 66 139 55 98 51 50 130 182 177 64 57 103 47 123 103 
42 54 135 143 37 95 59 40 70 46 96 75 118 105 145 98 142 30 98 137 58 169 285 68 72 159 114 106 207 205 129 20 38 54 50 240 95 158 93 157 110 76 49 154 84 34 104 63 51 95 67 100 91 69 65 106 28 78 56 116 68 86 79 122 
46 131 56 36 121 170 188 100 86 96 191 43 131 170 164 186 220 72 46 150 159 250 257 109 192 119 158 49 124 98 163 240 245 182 18 144 210 211 152 87 153 14 62 138 213 203 236 86 144 111 119 56 111 52 245 193 123 118 127 158 76 66 68 111 
65 180 30 87 111 102 171 106 68 129 211 85 23 78 56 154 194 105 87 86 105 133 206 104 46 59 75 154 80 185 112 106 128 159 62 5 150 172 61 132 116 67 84 103 75 155 256 108 52 141 135 33 55 32 118 82 23 137 96 100 61 88 59 106 
91 32 224 256 138 165 18 25 35 149 55 41 46 100 34 56 97 57 38 44 165 87 292 39 149 143 193 167 122 92 151 160 101 288 209 17 138 151 58 85 108 62 159 237 200 136 72 67 131 74 76 9 59 69 77 184 78 71 85 84 31 80 64 62 
58 92 77 150 209 83 73 95 113 68 76 158 120 111 40 37 152 121 230 30 134 68 206 56 46 65 122 101 110 124 82 93 55 230 186 191 107 67 150 111 136 35 40 58 117 119 48 15 103 154 143 119 72 31 43 91 41 39 47 98 131 48 66 78 
144 109 60 62 66 29 65 211 161 39 62 17 156 35 40 134 118 105 316 84 101 48 71 153 213 240 135 198 89 89 149 109 48 87 80 103 142 159 175 69 157 115 60 128 168 150 98 92 151 132 49 99 155 13 70 77 69 50 70 102 107 107 111 64 
125 43 106 118 129 52 73 22 57 83 88 134 140 33 64 115 59 17 58 112 152 81 102 181 113 169 109 93 45 129 10 22 66 41 32 29 133 107 84 37 125 31 113 45 127 59 88 146 44 174 70 98 157 23 166 71 41 50 102 64 82 72 111 107 
93 113 152 11 245 154 75 114 153 91 120 143 66 74 71 92 93 110 27 152 57 68 174 93 34 127 142 120 145 141 22 118 215 168 82 87 167 91 18 134 82 26 107 55 42 100 123 20 138 61 157 151 167 91 179 78 55 76 167 82 66 16 51 157 
53 67 12 137 234 203 90 115 151 169 84 14 129 175 92 186 108 140 35 158 72 85 98 52 122 25 120 136 54 182 178 130 65 32 96 15 91 82 63 98 119 166 63 108 82 101 84 167 67 136 208 177 142 106 127 96 133 99 119 72 88 50 34 85 
175 259 251 214 62 138 85 64 52 90 57 131 206 271 80 199 34 69 101 103 48 116 157 245 155 71 81 43 67 101 99 38 206 115 52 77 217 114 48 119 173 64 175 59 156 109 171 36 136 108 203 171 76 19 119 103 82 70 113 71 52 38 27 196 
194 186 131 57 142 70 110 114 189 198 192 23 72 140 159 119 234 211 55 111 96 134 60 74 95 140 93 71 137 116 58 43 47 23 83 166 190 21 86 111 70 230 102 152 205 148 205 171 92 26 72 126 93 88 101 156 224 123 46 77 55 67 67 23 
124 81 245 185 118 113 56 171 59 168 183 141 159 110 102 73 52 190 191 66 10 79 17 160 185 119 55 47 134 176 121 185 169 74 29 61 50 77 162 91 11 119 160 108 94 73 26 118 33 117 30 77 103 58 117 198 125 82 11 60 108 139 142 132 
271 241 83 62 78 88 129 117 58 100 200 114 69 70 36 35 58 93 221 69 34 104 154 53 158 91 136 114 68 51 107 133 36 84 78 107 155 120 86 103 67 24 47 117 124 60 30 57 95 149 177 208 172 32 88 104 89 114 89 53 66 143 14 58 
67 176 48 101 46 105 151 104 124 159 110 82 197 178 152 114 203 117 72 132 55 132 84 95 34 72 29 112 127 106 64 127 61 125 66 82 44 19 39 40 32 66 165 45 114 52 65 178 154 45 68 88 72 126 83 133 147 152 129 68 90 123 71 126 
114 58 19 58 99 177 152 22 94 85 130 153 129 268 119 77 126 88 85 112 133 90 43 145 148 130 170 89 67 141 157 19 104 110 53 42 44 61 147 108 55 109 237 102 34 100 103 46 64 78 20 46 75 88 23 56 85 155 94 152 143 94 111 53 
200 30 124 30 27 108 127 54 63 128 227 161 94 117 104 26 95 149 11 62 18 72 101 57 146 147 147 100 78 70 28 94 105 172 112 165 23 88 141 131 46 36 54 100 66 75 46 15 14 94 19 113 68 94 81 141 50 72 109 139 61 123 53 53 
151 137 238 77 7 56 57 85 68 117 140 92 159 160 115 84 27 132 109 20 132 46 97 105 114 11 29 103 132 202 113 73 127 251 143 146 111 192 50 40 131 144 51 124 127 146 151 226 168 79 41 85 125 116 51 48 61 25 113 91 72 122 135 139 
61 225 166 141 74 92 39 31 35 119 58 93 92 78 29 145 79 173 158 32 115 70 138 50 9 104 56 141 111 128 44 71 49 86 56 143 170 216 30 156 126 98 114 64 27 16 34 119 88 68 9 48 7 84 169 156 86 74 51 28 31 48 90 46 
115 170 112 145 75 5 67 101 64 107 100 74 71 150 119 192 172 55 157 33 80 78 102 68 49 50 74 186 127 140 99 64 59 79 105 211 186 130 21 40 58 54 23 111 72 45 61 57 60 154 136 85 120 96 86 194 71 62 94 19 125 95 92 125 
69 41 69 89 47 67 104 41 36 122 103 31 53 198 133 112 158 144 137 53 95 142 167 37 99 91 151 106 196 59 87 40 74 69 155 95 48 38 36 71 115 34 33 50 164 119 98 126 39 87 202 114 81 48 51 88 136 171 128 127 73 47 104 74 
61 73 70 72 56 74 66 186 83 78 79 66 173 248 185 64 58 51 50 111 78 149 183 98 101 101 21 24 143 158 61 212 179 28 171 170 86 14 140 88 60 17 88 141 109 127 172 92 43 76 153 160 94 131 79 60 88 63 110 73 119 103 64 155 
140 110 97 86 112 24 91 146 70 38 33 66 136 134 85 127 181 182 176 102 88 20 123 19 60 131 73 108 172 67 193 213 89 87 19 107 100 42 39 91 74 91 50 24 117 165 175 40 104 134 127 69 211 48 84 83 147 124 51 35 51 148 56 45 
143 126 118 122 206 207 194 181 89 203 145 86 80 185 131 126 215 181 121 47 91 147 29 81 120 110 153 166 51 87 69 95 101 57 58 45 94 124 168 92 85 151 51 73 48 28 86 88 121 72 36 105 152 160 154 88 39 101 143 71 81 113 114 125 
75 59 154 247 106 83 141 89 116 72 127 87 78 101 94 82 173 80 167 92 54 90 101 40 198 183 169 148 94 40 194 119 151 42 39 118 91 96 32 100 187 46 47 126 50 64 182 234 60 65 42 78 77 117 70 108 23 63 119 45 70 36 105 171 
