P2
64 64
10240
139 63 244 306 21 158 127 145 110 44 276 172 319 205 93 103 80 185 163 88 169 148 155 114 119 110 69 138 213 113 180 162 60 135 92 147 176 106 116 108 112 118 178 156 174 140 43 99 51 34 165 160 172 174 90 90 46 40 86 59 30 81 72 58 
231 42 27 178 102 95 179 79 120 137 86 72 158 201 201 164 243 172 9 106 52 109 116 190 96 82 21 75 39 82 148 181 227 132 45 11 74 41 142 19 92 89 143 70 39 72 137 135 85 237 158 87 56 134 113 41 105 179 288 164 88 122 86 94 
32 191 32 165 239 76 193 160 156 168 76 153 76 142 159 80 130 103 42 59 13 166 88 97 105 127 48 72 33 114 187 169 78 79 104 66 43 24 150 132 93 27 22 81 121 198 107 133 27 71 24 59 150 110 45 52 63 81 72 89 90 76 28 66 
20 230 151 87 203 166 102 190 76 99 228 210 72 104 82 46 73 115 57 95 31 181 151 191 259 185 23 145 64 68 53 95 115 69 114 131 62 90 124 172 157 115 100 121 33 156 130 98 62 118 78 48 108 37 108 98 89 105 105 39 223 156 115 110 
76 181 35 94 142 112 88 191 33 82 12 69 55 114 80 102 47 109 106 116 89 75 111 151 235 126 109 101 60 84 106 95 57 28 28 97 120 138 125 120 118 150 64 87 112 191 130 103 112 110 21 94 91 83 84 187 183 67 83 127 191 99 96 89 
45 23 191 177 79 83 135 254 98 27 137 27 96 55 116 53 154 127 14 64 32 19 85 78 112 64 145 102 98 201 79 164 167 94 86 21 133 116 92 29 86 33 154 186 173 97 50 74 187 130 92 130 10 87 84 93 119 88 142 65 98 7 44 192 
98 72 57 76 135 132 125 147 23 298 100 6 68 123 135 83 204 229 186 132 216 157 102 65 187 91 127 72 45 141 76 106 132 62 79 89 115 59 135 62 222 112 74 178 100 60 63 107 98 12 122 41 154 168 45 32 32 60 187 155 95 186 83 107 
120 170 100 115 181 221 47 118 32 314 94 195 195 116 39 201 146 86 169 119 132 114 159 143 150 40 109 67 28 67 127 119 114 92 100 82 59 71 112 76 103 33 28 174 16 110 115 162 16 182 69 45 113 115 69 94 52 11 92 55 70 140 73 22 
172 223 107 69 13 121 103 131 188 230 184 98 50 134 90 113 224 93 231 58 77 120 140 100 88 173 50 101 132 99 212 58 238 104 138 123 163 55 79 88 125 190 16 134 72 102 171 145 83 105 87 124 131 52 113 121 46 51 7 110 46 119 118 108 
113 92 167 139 54 89 120 149 88 194 78 23 194 139 105 193 286 125 143 180 195 180 234 61 44 162 75 134 154 90 58 108 72 182 35 119 183 121 26 80 177 137 44 35 68 157 91 70 81 35 190 71 132 23 59 48 129 112 44 78 16 42 37 109 
131 154 62 78 168 120 18 90 50 38 43 155 106 51 104 52 69 175 86 135 166 105 83 74 168 90 84 19 66 64 56 46 105 92 73 78 170 84 131 201 180 91 92 133 77 70 84 113 104 104 92 86 2 87 66 110 122 35 96 87 33 62 18 120 
56 97 119 97 153 149 98 216 88 217 181 86 6 74 100 92 161 79 141 101 77 57 124 73 135 137 84 70 68 47 82 56 145 192 141 65 63 119 136 151 164 212 206 93 73 60 56 98 121 94 104 70 134 8 134 161 143 45 95 135 112 59 65 123 
126 127 212 180 148 16 44 84 129 17 85 53 33 88 174 173 21 79 98 143 80 77 48 86 62 163 126 151 177 81 107 149 130 121 140 35 27 200 62 89 96 75 22 44 17 107 25 116 162 49 101 84 213 101 48 109 80 53 50 71 83 25 107 38 
131 59 188 152 86 31 53 47 292 157 80 117 89 86 77 113 129 69 166 75 47 77 103 141 138 144 98 101 87 73 76 85 103 116 47 55 76 206 125 173 96 105 66 96 79 103 103 71 116 103 73 59 66 63 66 93 29 49 77 119 123 128 39 54 
69 33 27 114 69 143 101 87 45 208 191 49 249 149 27 53 45 97 102 73 136 76 22 10 143 102 111 66 89 29 46 62 138 67 108 16 77 41 111 204 107 45 114 138 188 98 68 59 26 65 75 29 102 112 77 77 66 182 104 169 122 139 176 171 
253 118 90 239 162 50 87 45 70 288 245 55 220 123 159 63 88 53 67 113 92 42 53 42 140 166 257 214 69 73 68 46 81 86 132 164 181 197 74 94 178 133 122 35 222 194 208 127 27 43 101 78 59 48 128 167 25 234 100 125 61 111 100 64 
177 6 117 229 188 121 72 154 49 184 163 173 253 24 200 106 20 119 132 194 145 98 93 11 142 252 99 162 179 154 99 44 55 127 225 128 40 122 57 94 79 62 47 32 83 33 108 50 89 67 41 146 53 112 141 12 55 58 116 83 34 42 111 118 
108 235 170 212 124 133 96 69 87 124 242 95 22 208 217 147 110 76 50 162 62 168 212 57 166 9 88 74 139 249 181 157 76 42 95 25 61 117 120 89 159 101 67 134 213 114 54 194 81 64 66 119 79 49 26 49 165 138 93 91 66 141 54 148 
128 49 28 75 171 143 16 57 152 70 191 82 194 161 144 96 119 185 46 63 59 57 44 184 250 53 157 107 169 120 69 82 21 137 166 48 60 115 84 178 55 93 101 142 277 150 87 88 45 178 45 105 164 121 37 111 178 119 112 49 103 78 204 79 
223 172 119 64 132 94 60 160 284 142 131 151 197 59 141 151 163 168 79 50 156 160 139 117 173 135 11 61 116 99 176 209 214 196 172 83 171 131 156 168 62 75 167 160 99 73 58 53 37 75 61 187 59 68 64 99 46 28 113 55 116 52 179 88 
66 103 162 68 129 77 43 97 56 38 89 124 76 120 107 108 177 170 102 171 67 91 85 212 179 66 141 83 77 146 106 170 164 116 36 212 113 33 70 179 45 145 83 121 213 66 237 14 72 56 18 116 183 115 172 137 52 6 59 65 51 7 31 51 
149 54 253 214 28 112 194 200 264 8 104 137 177 125 61 153 16 138 172 176 141 29 76 123 185 32 50 121 63 51 140 239 134 142 127 183 105 178 120 226 185 141 144 67 74 51 118 62 178 12 25 78 82 106 173 149 83 73 73 49 60 100 87 97 
147 113 59 89 160 80 96 109 108 55 156 130 43 153 310 324 131 95 133 46 147 73 107 123 213 79 192 221 32 257 198 67 64 245 131 159 211 76 84 172 115 60 122 78 160 90 165 66 123 47 101 146 51 80 34 121 38 38 44 40 93 62 26 89 
94 81 78 191 275 194 177 190 210 140 198 56 109 179 257 169 26 162 42 211 248 109 263 206 36 98 109 89 171 151 54 69 130 179 122 52 140 95 247 92 208 80 42 104 128 39 124 56 136 51 164 192 112 55 65 93 78 83 59 157 144 60 83 65 
37 55 211 146 187 171 214 236 109 176 123 219 185 126 132 179 225 115 135 248 147 246 165 113 190 49 189 80 210 251 140 130 181 60 119 254 151 109 122 119 133 36 146 187 151 175 84 84 58 83 142 160 224 89 102 75 74 101 76 153 116 98 85 178 
126 165 123 13 201 200 43 73 78 150 138 30 103 24 52 97 212 105 149 91 177 150 173 90 77 162 59 216 88 252 236 267 209 278 288 98 228 144 137 146 153 127 124 66 128 34 43 70 194 211 146 69 46 59 114 95 162 136 77 33 30 97 52 77 
135 107 61 189 130 60 126 36 136 154 132 64 133 239 108 215 226 140 123 42 117 290 63 200 104 157 200 60 237 94 174 262 302 349 300 112 352 161 267 219 175 110 24 59 97 117 100 183 249 139 112 29 27 115 64 17 86 64 52 36 110 170 85 31 
184 164 141 45 267 214 209 91 104 60 110 22 142 194 127 115 100 111 29 71 119 61 264 138 56 140 143 166 393 300 155 232 348 201 229 274 101 108 200 109 155 46 122 168 146 17 18 132 93 105 33 99 87 99 61 45 46 80 87 97 172 174 88 123 
184 132 181 122 84 130 135 137 53 38 18 184 156 128 244 229 195 94 116 156 109 54 132 170 159 224 255 342 141 329 158 382 351 60 328 181 354 52 215 270 78 78 182 68 107 27 42 172 29 49 58 103 64 20 70 142 76 69 81 78 80 10 61 111 
75 174 47 80 93 13 141 100 104 93 53 151 5 9 128 148 92 89 146 125 240 64 184 47 278 239 188 270 257 201 664 457 370 652 492 298 78 431 163 135 103 317 74 47 161 56 32 131 95 46 105 121 40 111 137 68 16 48 137 99 62 145 164 64 
306 186 58 73 94 8 117 126 220 166 60 23 52 30 36 27 106 162 74 169 128 210 144 93 69 278 139 293 221 858 612 1515 1491 1156 463 294 426 282 48 127 162 198 8 7 191 137 113 150 54 151 168 138 76 26 135 35 12 33 70 70 163 113 70 32 
788 70 285 105 133 140 120 64 165 203 95 185 77 134 22 61 173 111 98 113 141 240 206 89 188 92 267 573 434 219 1385 2613 4098 604 635 760 372 67 113 260 268 80 81 81 48 39 48 182 126 153 146 157 4 95 102 61 16 56 26 119 112 183 166 236 
2036 370 407 200 122 92 158 137 148 328 154 205 75 56 42 62 233 90 104 132 195 152 209 53 142 79 360 460 576 222 747 7552 10240 1486 1091 799 264 101 278 246 108 121 74 148 98 59 62 166 129 8 118 61 65 139 228 197 85 126 20 123 113 159 39 574 
707 139 198 335 133 85 93 71 43 209 26 159 216 21 192 148 170 3 77 21 38 167 41 288 44 211 263 442 407 238 1425 2552 4139 568 662 756 490 149 126 268 26 148 43 185 70 123 47 96 36 129 81 82 119 128 172 135 56 130 26 121 43 138 101 168 
516 344 187 316 117 109 105 70 103 161 111 54 231 61 254 85 155 60 111 159 120 151 160 99 78 226 337 226 184 694 616 1483 1451 1123 552 504 396 124 112 137 187 56 171 24 114 130 59 103 64 50 54 24 62 18 124 145 85 119 54 25 56 154 87 213 
78 72 139 120 110 187 180 52 129 159 210 68 173 100 147 55 218 88 48 143 140 200 235 125 259 149 223 305 371 165 678 448 350 635 495 227 45 327 205 119 159 172 130 178 152 165 69 7 109 128 49 10 123 49 89 50 102 125 49 133 111 106 124 28 
252 138 141 22 181 148 118 135 162 128 70 58 184 104 7 121 182 110 68 60 126 140 27 110 289 157 167 323 207 334 208 254 380 154 312 158 314 88 322 116 91 136 111 95 78 145 73 105 154 210 109 84 219 58 29 39 57 117 58 139 62 66 89 82 
81 171 150 341 239 91 95 109 35 95 143 87 184 85 36 156 108 122 72 89 188 95 130 153 38 293 69 200 179 306 101 354 268 184 142 358 221 121 131 18 95 204 85 120 41 15 26 83 18 98 56 137 130 42 51 32 38 98 80 166 90 116 135 195 
142 133 164 146 73 41 63 151 78 38 92 109 76 62 214 243 233 119 219 81 95 94 53 127 260 139 300 219 299 143 345 277 269 202 24 206 139 179 201 135 74 116 232 206 36 73 80 98 226 89 109 97 82 56 143 98 39 49 60 74 121 112 11 32 
169 71 88 71 116 25 186 200 181 111 75 77 106 155 260 141 79 42 37 114 124 179 101 165 32 167 113 259 120 219 282 232 206 208 265 172 109 158 74 72 87 139 184 188 92 53 113 173 160 36 25 35 37 55 145 129 136 13 69 198 99 98 145 101 
236 159 185 72 187 127 208 59 39 159 79 331 247 156 160 41 127 94 207 209 198 212 69 93 139 127 122 201 254 226 84 161 188 109 229 272 144 86 85 150 104 250 123 155 259 127 130 217 149 116 60 59 137 68 131 141 195 192 127 150 101 115 91 36 
100 99 51 244 164 132 75 43 162 194 98 190 100 272 124 94 155 181 111 150 137 27 160 90 197 185 147 192 123 113 159 167 43 45 133 121 120 132 122 120 113 260 145 101 267 54 106 132 74 159 171 78 72 116 124 156 92 175 146 152 217 57 55 26 
126 96 108 182 23 123 51 92 100 64 79 72 131 181 45 74 115 213 112 196 102 157 65 74 136 55 96 165 190 50 240 161 102 126 302 70 152 195 36 173 196 86 97 144 60 25 108 37 231 241 163 100 76 141 78 109 164 89 102 85 161 38 35 67 
81 33 90 110 32 111 106 140 151 214 143 140 84 88 50 148 142 139 56 166 69 124 220 146 312 134 212 61 216 196 112 75 265 175 83 93 107 84 103 66 190 96 36 75 96 149 165 58 153 121 44 92 135 114 26 143 152 85 112 35 43 193 61 124 
160 88 60 40 121 12 68 76 159 211 173 199 139 37 44 102 109 246 154 277 150 114 101 121 138 112 59 76 185 127 102 87 193 128 110 75 118 73 186 65 159 123 109 37 149 123 145 153 105 52 114 31 114 127 28 55 83 57 28 103 31 123 121 67 
169 269 88 188 52 124 131 106 105 77 44 117 98 129 66 66 36 93 133 36 203 162 168 131 123 203 141 182 110 68 220 183 213 113 125 130 84 87 57 152 116 102 211 113 188 35 11 145 95 141 81 132 163 100 51 197 169 30 86 50 76 63 169 155 
106 289 160 92 89 136 185 229 141 63 70 253 51 163 142 126 73 132 94 357 212 146 118 174 111 178 75 64 147 85 199 68 69 70 58 190 130 62 69 139 233 57 22 43 62 27 79 150 21 123 14 129 52 122 53 111 58 32 103 128 60 25 24 77 
150 65 150 53 148 49 155 246 100 59 28 81 133 141 56 60 149 108 99 206 145 147 30 175 122 176 78 101 116 74 122 46 196 177 237 228 55 86 27 119 120 137 210 95 79 95 55 142 133 175 179 30 103 188 157 67 60 37 106 57 142 75 164 92 
149 129 140 137 76 187 112 43 24 162 165 86 168 175 51 58 66 100 102 30 50 40 81 78 65 67 92 90 36 213 189 86 120 37 136 148 162 86 158 216 25 15 127 108 147 111 34 18 114 183 148 172 206 109 163 72 101 109 20 89 129 61 46 105 
83 110 157 122 132 158 308 183 133 202 98 118 75 110 82 87 103 264 230 253 151 108 117 239 101 91 167 140 169 180 105 69 82 62 32 56 201 252 107 168 119 16 48 98 124 59 79 64 138 75 19 94 84 103 202 67 32 62 137 24 93 50 51 161 
201 218 147 143 211 164 229 102 113 110 88 192 8 57 59 46 89 106 84 199 201 102 82 121 143 154 30 58 56 65 129 57 68 69 22 21 92 107 112 155 27 16 32 157 128 100 85 46 33 27 48 160 41 63 200 28 108 112 108 31 79 20 39 67 
99 46 99 193 135 161 79 56 63 129 93 97 147 64 104 169 179 133 115 83 101 39 121 107 122 141 192 145 41 50 52 164 86 70 100 53 56 90 91 163 152 96 69 37 88 147 112 159 81 88 26 79 59 111 60 210 75 54 66 57 51 171 64 45 
135 71 95 121 126 124 18 112 79 111 85 223 237 125 90 185 188 99 121 50 56 57 51 113 60 14 171 146 90 38 131 91 152 100 127 119 104 138 175 95 105 37 45 143 64 137 26 65 107 162 75 62 45 56 63 81 89 71 105 67 77 211 16 87 
149 147 55 74 158 155 68 155 177 219 119 88 134 149 181 60 125 29 76 32 47 193 220 174 116 97 131 60 99 105 196 126 100 73 52 121 59 86 120 58 41 86 40 112 39 114 19 78 100 43 39 46 52 9 178 119 183 148 113 85 86 90 69 59 
152 14 119 107 61 113 107 114 193 112 135 51 9 152 102 128 95 49 86 21 130 92 19 165 174 106 119 141 156 51 83 97 37 25 46 31 60 51 69 103 123 41 64 125 154 27 142 71 12 115 56 118 58 125 49 64 105 65 56 119 89 37 88 78 
107 83 30 139 61 44 142 169 112 170 128 151 152 167 130 40 73 50 132 105 24 60 72 165 66 91 96 149 109 23 116 121 71 33 60 120 105 134 99 61 56 176 172 166 168 109 163 152 234 49 60 188 68 19 132 121 156 86 55 51 92 137 27 36 
137 101 165 83 178 58 26 74 101 218 70 138 201 6 110 93 180 166 122 119 131 30 178 196 25 98 76 74 104 61 78 197 79 168 105 81 112 53 153 124 83 102 95 60 32 164 179 107 115 29 73 47 67 116 167 161 131 74 103 69 75 114 147 125 
55 106 108 148 36 142 78 60 115 63 180 131 61 100 227 141 135 179 61 27 222 97 39 111 93 95 107 25 70 108 71 135 96 135 57 83 8 32 45 89 138 129 52 104 119 105 92 70 190 122 30 157 156 45 215 91 130 79 92 199 135 112 80 95 
229 154 184 204 91 224 101 82 55 60 191 186 47 163 49 67 90 110 58 6 154 91 121 249 110 131 24 116 113 107 19 96 122 73 127 96 75 108 107 124 78 84 89 227 121 78 154 183 137 28 80 88 73 57 182 22 148 110 64 181 28 51 38 19 
335 183 69 52 128 110 144 75 161 91 104 67 82 109 104 203 127 63 92 119 135 180 72 79 60 101 63 166 19 82 89 160 131 101 107 176 66 134 111 93 47 79 40 35 102 108 88 158 55 79 87 94 128 46 42 38 159 103 79 66 86 119 34 44 
136 97 34 192 161 116 12 150 195 70 72 32 101 61 97 134 83 144 212 197 18 94 59 139 103 150 106 132 91 70 19 35 57 118 45 118 90 51 60 233 125 149 102 84 87 98 75 60 42 63 44 65 35 6 50 93 68 82 41 112 51 43 77 82 
143 172 145 259 60 119 142 100 27 24 40 66 113 115 113 65 101 72 174 79 106 172 38 208 215 229 86 143 99 166 115 101 70 62 47 61 136 34 54 241 179 207 208 59 49 46 91 86 55 89 22 58 103 125 125 60 86 72 106 141 75 49 165 21 
78 58 157 52 13 85 51 131 52 19 133 142 145 35 124 139 137 162 180 135 65 64 51 110 162 222 57 128 38 76 22 51 157 171 83 57 26 130 40 115 18 68 177 101 45 14 79 101 122 64 125 86 99 8 76 123 68 138 6 139 90 35 147 62 
122 105 176 144 120 250 206 105 78 74 112 119 29 95 237 251 12 166 95 56 16 152 133 94 73 146 114 44 19 55 33 180 229 108 77 51 1 110 71 16 171 85 26 120 16 63 81 89 172 33 158 164 32 79 102 137 60 85 52 74 124 66 74 59 
